<svg width="1920" height="196" viewBox="0 0 1920 196" fill="none" xmlns="http://www.w3.org/2000/svg">
<path d="M1920 0.533249V92.2123C1918.03 96.1248 1915.76 99.7448 1915.43 105.522C1910.71 105.12 1914.26 103.657 1909.98 104.535C1909.32 102.012 1908.7 99.9276 1910.97 98.5747C1909.87 97.0024 1908.34 96.1248 1907.38 94.5525C1905.08 95.1376 1905.26 98.3553 1904.61 100.622C1903.22 100.622 1901.13 100.037 1900.99 101.61C1896.27 96.0151 1885.45 99.2695 1878.53 97.5874C1878.53 94.845 1873.49 97.0024 1872.21 94.5525C1870.31 94.845 1873.53 97.1852 1871.33 98.5747C1869.06 93.7846 1862.48 93.6749 1861.39 87.6051C1859.63 88.0073 1860.65 91.4079 1857.77 90.64C1853.41 79.0853 1841.68 86.1424 1831.69 82.6322C1829.06 83.0344 1829.76 87.1297 1828.18 88.4826L1828.51 91.1153C1828.29 91.0056 1828.15 90.9325 1827.89 90.8228C1827.56 89.6527 1827.75 88.4826 1828.11 87.6051H1827.16C1826.39 84.4604 1823.76 83.4 1823.54 79.5972C1817.4 79.1219 1811.91 77.9518 1809.97 72.6498C1806.46 73.3446 1806.14 77.5496 1802.84 78.7197C1801.24 76.087 1802.26 76.8548 1799.22 73.6371C1798.38 77.5496 1795.06 71.7722 1796.52 76.672C1793.59 77.5496 1795.35 73.3445 1792.9 73.6371C1793.74 79.3047 1787.12 85.7768 1782.15 79.5972L1783.46 79.1219L1783.03 77.6592C1786.06 74.9168 1781.67 71.8819 1780.32 70.7118C1779.41 70.7118 1779.55 71.8819 1779.33 72.6498C1777.18 71.4797 1775.97 69.3223 1774.84 66.6896C1768.03 65.812 1766.97 71.1872 1760.5 70.7118C1757.87 66.1046 1748.58 58.6818 1745.25 66.6896C1743.28 65.1173 1739.92 63.289 1738.01 66.6896C1735.05 65.9949 1736.62 60.2541 1733.44 59.7422C1730.59 59.0475 1732.27 63.3622 1729.86 60.7295C1732.05 62.5943 1731.25 67.8597 1736.19 66.6896C1735.78 68.6276 1732.71 67.4575 1733.44 70.7118C1730.92 71.5894 1731.14 69.3223 1728.95 69.7246C1727.78 70.7118 1727.78 73.052 1726.31 73.6371C1727.48 79.5972 1732.78 81.0599 1733.44 87.6051C1731.18 88.3729 1729.09 89.4699 1728.07 91.6273C1724.45 92.0295 1724.45 88.2998 1721.82 87.6051C1719.73 87.8976 1717.57 88.2998 1718.12 91.6273C1716.29 90.0549 1712.53 86.6544 1711.87 91.6273C1708.25 90.3475 1708.91 84.2776 1705.54 82.6322C1710.26 77.1473 1708.29 65.4098 1719.15 64.7517C1718.27 61.2414 1718.93 62.3018 1718.09 58.7915C1715.67 60.2541 1712.82 58.0968 1711.83 62.704C1709.02 61.3511 1708.87 62.5212 1705.51 62.704C1705.54 59.084 1701.56 59.8519 1698.3 59.7787C1697.9 64.4591 1700.06 66.1411 1698.3 69.7611C1697.02 68.7007 1694.06 65.7389 1694.72 70.7484C1690.66 70.8581 1688.17 67.8231 1687.48 72.6863C1682.32 70.529 1687.52 62.2286 1691.98 61.7167C1691.76 56.9266 1690.66 53.197 1686.64 52.8313C1683.46 56.8535 1684.04 59.1937 1682.03 63.8009C1682.47 64.971 1683.28 65.8486 1684.77 65.7389C1687.7 66.909 1682.36 66.909 1681.08 66.7262C1681.04 71.114 1682.51 71.3334 1680.31 73.6736C1678.49 73.0886 1678.23 70.6387 1676.69 69.7611C1674.65 71.5163 1672.78 73.3811 1672.12 76.7086C1669.82 75.9407 1666.42 70.2365 1664.92 74.7706C1663.49 73.7102 1662.87 72.0282 1664.01 70.7484H1663.16V70.5656C1662.51 70.6753 1661.85 70.7484 1661.19 70.7484C1660.64 70.7484 1660.02 70.6387 1659.43 70.5656V70.7484C1652.63 71.7356 1648.61 75.9407 1649.6 85.7037C1652.41 83.1441 1653.66 84.0582 1656.84 85.7037V87.6416H1658.67L1657.31 88.117L1657.75 89.6893C1655.12 90.4572 1656.77 91.1519 1656.88 93.6018C1655.7 92.1392 1653.47 92.0295 1652.3 90.6766C1648.94 94.1869 1639.47 89.214 1637.93 96.6367C1633.58 95.1741 1633.55 88.8117 1630.69 85.6671C1623.71 87.8245 1619.29 86.435 1613.62 94.5525C1609.16 92.7974 1606.05 94.5525 1604.66 98.5747C1602.9 98.1725 1603.96 94.7719 1600.97 95.6495C1600.53 97.1121 1600.09 96.8196 1599.14 99.562C1594.53 97.039 1589.05 98.6844 1586.67 103.584C1580.53 102.195 1568.46 111.519 1565.79 104.571C1564.44 109.873 1560.63 98.0262 1555.92 97.624C1557.09 91.3713 1564.77 98.6113 1565.79 92.6511C1571.71 92.7608 1576.54 88.8483 1579.36 88.6289C1583.2 89.6893 1581.95 96.3442 1585.61 97.624C1589.89 95.4666 1585.21 88.0439 1593.8 89.6893C1596.76 89.2139 1595.55 84.3142 1599.14 84.7164C1599.14 76.0138 1593.8 77.769 1590.14 74.734C1585.9 78.5368 1578 76.672 1575.77 84.7164C1572.92 82.8515 1572.37 78.4637 1569.45 76.7086C1565.61 81.3158 1559.68 77.2936 1555 80.7308C1554.78 82.3031 1555.84 82.3762 1555.95 83.656L1554.56 84.1314L1555 85.7037C1548.35 83.8388 1548.35 93.8212 1544.25 91.6638C1544.07 96.4539 1547.87 96.9293 1548.75 100.659C1546.23 101.829 1542.83 100.951 1538.99 102.524C1538.37 102.999 1537.82 103.511 1537.23 103.584L1537.01 103.694L1536.79 103.584C1536.46 103.474 1536.14 103.401 1535.81 103.182L1535.55 102.999C1535.15 102.524 1534.82 102.012 1534.49 101.244L1534.38 101.646C1532.33 101.646 1531.67 99.8911 1529.01 100.659C1525.6 104.571 1518.07 106.144 1516.32 114.554C1514.78 114.261 1514.27 112.799 1514.49 110.532C1513.1 110.422 1511.13 111.044 1510.98 109.544C1509.66 109.837 1510.21 111.994 1509.99 113.567C1506.52 110.824 1502.31 108.886 1495.66 109.544L1495.22 108.082C1494.63 108.85 1494.3 109.544 1493.5 110.349L1494.67 111.519C1494.49 112.689 1494.93 113.274 1495.66 113.567C1492.92 112.396 1487.32 124.902 1496.54 123.549V124.536H1497.41C1498.29 124.536 1498.14 125.706 1498.33 126.474C1497.63 126.291 1497.45 125.487 1496.5 125.487C1496.79 129.509 1497.05 127.937 1498.33 131.447H1496.5V133.385C1496.68 134.263 1497.41 134.445 1497.38 135.433L1496.94 136.895L1497.38 138.468C1494.52 137.992 1495.04 141.1 1492.88 141.393C1489.51 140.698 1486.3 140.04 1482.06 140.406C1480.81 136.201 1478.76 137.261 1475.8 136.383C1478 133.458 1472.18 134.445 1474.85 130.423C1473.94 131.118 1473.94 132.763 1472.15 132.361C1474.89 128.631 1467.43 129.143 1466 131.081C1465.93 132.946 1465.35 134.299 1464.47 135.177L1464.98 135.36C1464.8 136.127 1464.03 136.347 1464.03 137.407C1462.86 137.407 1461.69 137.517 1461.4 136.53C1460.96 136.42 1460.59 136.347 1460.15 136.347C1459.64 136.347 1459.09 136.237 1458.54 136.164L1458.65 136.347C1456.39 136.53 1454.92 135.871 1454.16 134.409C1453.28 134.409 1453.42 135.579 1453.21 136.347C1450.13 134.08 1447.76 134.957 1444.25 135.36C1443.7 134.592 1443.26 133.787 1443.33 132.325C1444.32 135.067 1437.01 132.837 1435.25 131.337C1434.7 130.862 1436.93 130.167 1436.93 130.35C1436.6 128.595 1430.06 127.498 1433.35 125.377C1430.39 124.39 1429.44 121.062 1426.15 120.404V120.221C1425.82 120.331 1425.38 120.514 1424.98 120.514C1423.77 120.514 1422.56 120.039 1421.5 119.527C1420.44 120.221 1419.2 120.697 1417.15 120.404C1417.37 115.431 1413.09 115.614 1410.79 113.457C1409.84 117.26 1414.41 116.492 1411.67 119.417C1410.42 118.247 1410.35 115.614 1409.03 114.444C1408.34 114.627 1408.16 115.431 1407.21 115.431C1406.73 117.589 1408.52 117.369 1409.91 117.479C1408.71 119.344 1407.5 121.392 1407.21 124.426C1399.45 124.536 1395.72 129.034 1391.01 132.361C1392.95 134.628 1390.02 137.261 1391.01 141.356C1389.76 142.344 1387.61 142.344 1387.39 144.282C1386.62 140.771 1383.99 145.452 1383.8 141.356C1382.2 142.636 1380.22 143.404 1380.18 146.329C1378.65 146.512 1377.88 144.684 1377.55 146.329C1375.28 144.867 1379.53 141.064 1374.74 143.294C1374.52 141.539 1375.69 138.394 1372.98 139.382C1372.65 136.932 1377 139.857 1375.69 136.347C1377.44 136.347 1376.78 139.089 1379.27 138.394L1380.18 138.87L1381.06 138.394C1382.45 138.797 1380.7 139.674 1381.06 141.32C1382.6 141.612 1382.6 140.332 1383.8 140.332C1385.01 133.495 1384.13 125.853 1377.55 128.412C1377.77 126.767 1376.56 126.657 1376.49 125.377C1375.03 128.12 1370.9 126.949 1368.48 126.364C1365.45 128.814 1358.76 129.875 1356.67 130.387C1355.58 127.461 1357.59 121.684 1354.08 119.417C1348.7 121.684 1339.27 118.942 1330.56 120.404C1326.21 121.172 1321.57 126.072 1317.07 123.439C1315.43 129.692 1309.28 125.889 1309.83 135.36C1308.11 131.922 1296.89 131.922 1298.24 138.394C1296.41 137.919 1297.47 134.482 1294.55 135.36C1291.37 138.504 1294.47 144.062 1292.79 147.28H1291.81V148.267C1290.49 146.11 1289.65 149.547 1289.17 147.28C1286.32 148.852 1286.76 153.825 1282.92 154.227C1282.92 156.275 1285.3 155.507 1284.68 158.25C1282.92 158.067 1280.87 162.345 1280.21 160.297C1279.99 160.48 1279.78 160.699 1279.56 160.992C1279.34 161.284 1279.12 161.577 1278.9 161.76L1278.5 161.943C1278.24 162.052 1277.95 162.052 1277.73 162.052C1277.18 162.052 1276.85 161.943 1276.63 161.869L1276.3 161.76L1276.16 161.467C1275.94 161.175 1275.72 160.773 1275.31 160.407C1274.55 159.346 1273.67 157.884 1274.14 156.092L1273.82 156.275C1270.85 152.655 1269.24 147.755 1263.39 147.39C1262.22 148.56 1260.8 148.852 1259.37 149.145C1258.71 149.328 1258.09 149.437 1257.4 149.62C1257.36 149.73 1257.25 149.73 1257.14 149.73C1256.81 149.73 1256.48 149.547 1256.37 149.145C1256.26 148.669 1256.41 148.084 1256.85 147.975C1257.54 147.572 1258.38 147.499 1259.04 147.28C1260.58 146.987 1261.79 146.768 1262.55 145.415L1262.11 145.305C1259.19 144.428 1263.72 143.916 1264.82 144.245C1267.2 141.027 1267.56 132.215 1262.11 132.325C1261.2 134.665 1258.64 135.177 1257.54 137.407C1254.8 134.774 1249.79 134.665 1248.55 130.35H1248.59L1248.33 130.058C1248.07 129.875 1247.63 129.546 1247.09 129.363C1246.24 129.18 1245.99 128.376 1245 128.376C1243.72 130.935 1241.64 132.581 1240.5 135.323C1237.32 135.14 1233.59 135.616 1233.3 132.288C1223.54 134.848 1226.98 122.598 1221.6 120.368C1219.84 120.368 1220.43 123.11 1217.98 122.306C1217.98 118.686 1215.38 117.991 1211.65 118.393C1208.95 119.746 1209.79 125.633 1210.78 128.376C1208.18 134.043 1206.28 141.685 1206.28 145.305L1205.36 144.793L1204.52 145.305C1201.78 145.305 1199.95 142.38 1201.78 140.332C1200.47 141.393 1199.59 141.393 1198.16 140.332C1195.68 142.197 1194.32 145.305 1194.54 150.205C1190.19 150.79 1192.79 156.458 1193.7 159.2C1195.78 158.908 1195.35 155.763 1198.16 156.275C1199.08 159.2 1204.05 157.738 1204.52 161.248C1201.93 163.807 1195.67 164.978 1194.54 165.16C1188.4 166.55 1187.34 167.025 1183.72 158.213C1180.21 164.063 1166.86 163.881 1159.44 159.2C1158.34 160.955 1151.1 161.248 1152.2 164.173C1152.09 166.111 1148.91 163.405 1147.7 163.186C1140.79 164.173 1136.4 167.866 1134.25 174.155C1137.76 176.788 1133.92 178.251 1134.25 184.138C1130.55 183.845 1131.32 178.653 1128.87 177.19H1129.71V176.13C1129.53 175.362 1130.11 175.252 1130.63 175.143C1128.58 161.467 1118.67 162.052 1115.3 170.17C1115.01 172.327 1111.36 170.06 1110.81 169.183C1108.65 170.06 1109.82 174.741 1106.31 174.155C1106.42 171.413 1104.85 172.218 1106.31 170.133H1102.73C1097.9 178.361 1086.6 173.351 1080.2 175.106C1080.46 172.254 1076.18 169.621 1072.96 169.146C1071.1 171.888 1067.37 173.936 1065.76 174.119C1063.56 174.302 1062.91 172.547 1062.14 171.194C1060.49 172.547 1057.46 172.547 1056.8 175.106C1054.24 173.168 1053 173.351 1049.6 174.119C1049.67 176.971 1049.05 180.664 1050.44 182.054H1049.6C1050.47 182.821 1051.2 183.407 1052.67 184.577L1052.23 183.114C1057.46 183.589 1058.59 182.054 1059.36 189.294C1062.65 191.341 1066.49 191.634 1070.4 191.634L1070.22 191.049H1071.17L1071.68 191.232C1071.46 190.464 1071.24 189.586 1071.02 188.891C1070.91 188.014 1071.46 187.136 1072.23 186.953C1072.96 186.844 1073.84 187.429 1073.99 188.343C1074.02 188.635 1074.09 188.818 1074.2 189.111H1078.37V192.036C1080.35 191.561 1079.62 193.974 1081.08 194.084C1080.6 196.936 1079.65 192.511 1078.37 193.023C1080.27 195.766 1072.23 195.875 1069.82 193.499H1069.78C1065.76 193.499 1061.37 193.023 1057.82 190.464L1057.64 191.049C1056.25 192.694 1053.47 191.524 1052.27 190.061C1051.28 190.756 1051.28 192.329 1049.63 191.999V191.89C1048.86 192.475 1048.02 192.877 1047.11 192.95H1046.71C1045.57 192.95 1044.4 192.475 1043.45 191.67H1043.34C1042.9 191.853 1042.39 191.963 1041.92 191.963C1041.08 191.963 1040.27 191.78 1039.54 191.67L1039.03 191.487C1038.44 191.378 1038.15 190.902 1038.26 190.317C1038.3 189.842 1038.88 189.44 1039.32 189.55L1039.91 189.659C1040.75 189.952 1041.55 190.061 1042.21 189.952C1041.26 187.685 1041.15 185.454 1041.88 183.48C1041.99 183.187 1042.21 183.077 1042.36 182.895C1042.17 182.419 1041.95 182.017 1041.81 181.615L1042.47 182.785C1042.76 182.492 1043.23 182.383 1043.75 182.602C1043.96 182.712 1044.15 183.004 1044.29 183.187C1044.62 183.004 1045.06 182.785 1045.46 182.602L1044.99 181.03C1045.35 178.69 1040.93 181.615 1042.36 178.105C1039.54 177.337 1039.1 179.092 1036.91 179.092C1038.11 172.254 1033.43 177.154 1034.28 172.144L1035.52 172.656C1033.98 170.974 1033.43 169.036 1033.76 166.696L1033.29 168.159C1031.64 167.757 1030.25 166.586 1028.79 168.159C1023.2 157.811 1017.53 170.024 1018.92 179.128C1015.63 178.726 1014.35 176.203 1012.59 174.155C1011.6 174.338 1012.04 175.143 1012.59 175.143C1011.49 176.605 1009.52 177.081 1007.14 177.19C1006.81 175.618 1004.33 176.313 1005.39 173.168C1002.54 173.278 999.94 173.168 999.136 171.23L1000.38 170.755L999.94 169.183C1000.16 167.72 1002.68 168.89 1002.68 167.245C1000.05 167.537 999.538 166.952 1000.85 165.197C999.245 165.782 997.052 165.782 996.357 167.245L994.967 166.769L994.529 168.232C988.715 166.477 980.597 164.429 979.208 172.254C974.527 169.036 969.774 165.197 965.715 166.294C964.654 165.709 966.337 162.491 964.837 160.334C964.655 164.356 963.302 165.014 960.34 161.321L961.656 160.846L960.34 160.37C960.449 158.725 959.901 156.568 961.217 156.348L961.327 156.458C961.583 155.288 961.071 154.3 959.755 152.545C959.206 151.851 958.694 151.083 958.255 150.278C955.001 150.095 956.5 150.754 956.72 153.313C954.526 153.496 952.369 153.496 951.345 152.326C951.418 148.596 952.332 149.474 951.345 146.366L952.661 145.89L952.295 144.318C953.612 144.318 955.696 144.793 955.879 143.331L957.195 142.27L956.756 140.406C959.718 140.296 957.341 134.445 961.254 135.433C960.852 133.495 959.353 132.91 959.426 130.46C963.996 131.447 963.996 127.827 969.371 127.425C969.993 131.52 968.457 133.092 968.384 136.42C968.275 139.272 974.381 135.25 972.955 139.455H971.2L974.381 140.917L973.942 139.455C976.246 138.285 978.184 136.932 979.281 134.482C979.171 132.617 976.246 133.897 975.77 132.434C975.77 128.632 980.231 127.169 980.231 130.496C981.877 127.279 982.279 127.754 982.937 122.489C985.643 121.903 984.802 121.903 987.215 122.489C987.215 122.196 987.252 121.794 987.215 121.428C986.63 121.245 986.74 120.258 986.557 119.563C983.815 120.441 983.705 120.441 981.182 119.563V113.603C983.303 113.713 985.533 113.786 985.643 111.555C985.314 114.005 990.47 115.175 990.141 120.551L989.921 120.441C990.031 121.428 990.031 122.489 989.921 123.585H990.141C991.457 124.938 989.921 128.376 989.19 130.533L987.874 130.058C988.495 130.46 988.934 130.935 989.263 131.337L990.653 132.507L990.177 131.52C991.274 131.337 990.653 130.533 990.177 130.533C990.506 128.083 993.614 130.423 992.81 132.471C997.381 131.008 999.063 131.484 1001.91 129.546C1002.13 131.118 1001.04 131.191 1001 132.471C1002.94 132.983 1002.68 131.118 1002.83 129.546C1005.64 132.983 1015.19 129.143 1014.46 136.493C1018.19 135.725 1019.14 138.065 1022.57 137.553C1024.22 136.566 1025.72 135.616 1025.28 132.471C1029.85 131.776 1034.57 131.703 1037.02 135.506C1038.26 132.471 1039.76 135.506 1041.59 132.471C1042.69 134.336 1041.7 140.698 1044.22 143.441C1042.47 141.21 1041.48 145.378 1042.14 146.951C1042.58 146.951 1042.9 146.658 1043.42 145.964C1044.18 144.976 1045.28 143.696 1047.22 144.318C1049.52 143.258 1052.59 143.148 1051.46 138.541C1053.76 136.676 1056.36 135.213 1057.79 132.471C1059.4 135.104 1059.54 139.235 1062.28 140.479C1065.36 140.881 1065.03 137.553 1066.75 136.457C1066.27 134.007 1063.34 134.299 1064.15 130.496C1069.85 130.314 1075.23 132.544 1077.61 129.509C1080.86 132.251 1082.07 137.151 1085.72 139.491C1087.77 138.906 1084.7 137.919 1086.6 136.457C1089.78 137.334 1087.77 145.269 1085.72 146.439C1086.02 148.779 1088.9 148.304 1088.43 151.412C1087 152.765 1086.6 155.434 1082.98 154.337C1082.1 157.957 1087.77 155.215 1084.85 158.359L1083.42 157.884C1084.7 158.652 1085.17 159.639 1086.12 160.919L1085.72 159.346C1087.22 159.456 1088.03 158.652 1088.43 157.409C1089.93 158.103 1089.09 159.676 1087.55 159.346C1089.74 162.966 1096.07 162.966 1096.51 157.409C1100.57 157.811 1099.14 160.443 1100.2 162.381C1114.13 164.648 1120.2 152.801 1112.71 142.417C1113.88 143.696 1115.01 142.819 1113.7 142.417C1115.23 141.247 1117.32 140.479 1118.19 138.504C1115.16 137.115 1117.5 134.299 1119.95 133.422L1120.39 134.994L1121.78 134.519C1124.26 133.824 1123.6 136.566 1124.52 137.553H1123.64V138.541C1122.69 138.943 1121.92 139.309 1121.78 140.479C1123.17 140.369 1125.25 140.954 1125.36 139.491C1124.63 139.601 1124.59 139.089 1124.56 138.504H1125.36V137.517C1125.91 134.299 1123.75 134.372 1125.36 132.434C1132.82 136.53 1132.89 125.597 1129.86 120.514C1121.67 122.854 1112.12 123.037 1103.79 119.527C1105.18 115.139 1108.28 118.649 1110.99 116.492C1110.73 113.567 1109.56 111.519 1108.28 109.544L1108.76 108.082C1107.11 108.082 1105.58 107.972 1104.26 107.021L1104.66 108.594C1101.41 108.996 1100.39 111.044 1097.57 109.654C1097.53 109.764 1097.46 109.947 1097.31 110.129L1097.2 110.312L1096.95 110.495C1096.4 110.605 1095.78 110.678 1095.08 110.678C1094.21 110.678 1093.33 110.495 1092.3 110.203C1091.98 110.093 1091.83 109.617 1091.9 109.325C1092.09 108.923 1092.45 108.74 1092.74 108.85C1094.06 109.325 1095.34 109.435 1096.44 109.142C1096.62 108.959 1096.73 108.74 1096.77 108.557H1096.58C1098.19 106.802 1097.57 102.414 1095.71 101.61C1094.64 101.719 1094.94 103.365 1094.83 104.535C1093.58 103.548 1093 101.902 1092.09 100.622C1088.57 102.963 1081.7 104.827 1084 110.495C1081.92 106.4 1081.26 110.678 1078.85 111.482C1078.63 111.885 1078.52 112.25 1078.41 112.543L1078.3 113.237L1077.64 113.42C1077.02 113.53 1076.44 113.603 1075.45 113.603H1075.23C1075.23 113.603 1075.01 113.493 1074.9 113.493C1074.86 113.676 1074.75 113.896 1074.64 114.188C1075.08 114.371 1075.41 114.773 1075.48 115.249C1075.92 117.881 1075.23 120.039 1073.33 121.026L1072.96 121.209L1072.52 121.099C1071.13 120.916 1069.16 120.514 1067.62 119.161C1067.51 119.271 1067.44 119.344 1067.29 119.344C1066.2 119.929 1065.68 120.221 1065.54 120.806C1065.43 121.501 1064.81 121.977 1064.26 121.977C1064.15 121.977 1064.04 121.977 1063.93 121.867C1063.16 121.757 1062.69 120.88 1062.91 120.112C1063.34 118.064 1064.95 117.187 1066.09 116.601C1066.31 116.492 1066.53 116.309 1066.75 116.199V116.09C1067.07 115.797 1067.44 115.797 1067.73 115.687L1067.84 115.395C1069.38 113.64 1071.54 113.822 1073.11 114.334C1073.29 114.152 1073.4 113.932 1073.77 113.932C1074.02 113.823 1074.31 114.042 1074.61 114.115L1074.86 113.347C1074.53 113.164 1074.28 112.872 1074.31 112.47C1074.31 111.994 1074.57 111.592 1074.9 111.482C1074.75 110.714 1074.64 109.837 1074.57 108.959L1074.13 108.447C1073.03 108.265 1072.49 108.63 1072.3 109.435C1071.86 105.815 1069.71 105.924 1069.6 101.5C1066.31 102.78 1064.04 102.67 1061.41 100.513C1057.17 101.39 1059.1 109.106 1055.15 110.385C1060.09 114.59 1052.3 120.075 1048.9 115.358C1050.4 114.773 1048.86 110.678 1050.66 110.385C1049.38 107.862 1047.73 105.705 1043.42 106.473L1043.93 104.901L1042.61 104.425C1042.21 102.56 1042.28 100.11 1039.87 100.513C1039.98 98.5747 1042.83 99.7448 1042.61 97.4777C1042.43 95.8323 1038.26 97.9896 1039.03 100.513C1033.21 96.783 1026.45 101.5 1027.22 109.8C1027.33 109.983 1027.44 110.203 1027.47 110.385C1030.18 111.153 1030.18 108.923 1029.89 106.473C1032.08 108.045 1032.52 111.555 1034.49 113.42C1033.73 118.503 1028.46 112.543 1029.01 119.38C1026.08 120.258 1027.18 116.857 1025.39 116.346L1025.9 114.883L1024.59 115.358C1023.38 115.175 1023.31 112.433 1024.59 112.433L1025.02 112.616C1024.91 112.214 1024.73 111.848 1024.59 111.336C1023.74 111.811 1022.94 112.214 1022.72 113.384C1022.94 113.274 1020.97 106.327 1023.63 107.424C1024.4 103.913 1022.32 103.511 1022.72 100.476C1020.2 99.0135 1017.78 103.511 1018.22 99.4157C1016.47 100.476 1016.83 103.804 1013.73 103.438C1013.4 101.5 1010.25 102.67 1011.02 99.4157C1005.9 102.743 1004.33 98.6479 998.404 100.476C998.002 93.1265 986.338 96.1614 982.206 90.4937C979.61 91.5541 976.209 95.3935 974.198 91.481C972.15 92.9436 974.747 93.9309 973.211 96.4539H970.578V97.3315C970.944 97.7337 971.236 98.0262 971.492 98.5016C972.077 99.562 972.26 101.061 971.968 102.231H971.931L972.333 102.414C972.48 103.474 972.114 104.169 971.456 104.352L971.017 102.999H970.724C970.724 102.999 970.468 102.816 970.286 102.597L969.627 102.414C968.531 102.122 969.189 101.134 970.03 100.659C969.993 100.366 969.847 99.9642 969.774 99.6717C969.737 99.562 969.591 99.562 969.481 99.4888C967.836 100.257 967.287 102.122 966.958 104.389H969.664L970.103 105.851L971.492 105.376C972.37 109.288 969.518 111.226 971.492 113.384C973.759 113.567 974.344 111.811 975.003 110.349C977.526 113.786 975.258 120.221 973.284 122.196C973.43 122.488 973.54 122.671 973.832 122.891C974.673 123.878 975.551 124.938 975.99 126.62C976.099 127.096 975.734 127.681 975.222 127.79H975.003C974.673 127.79 974.344 127.498 974.271 127.096C973.942 125.926 973.284 125.158 972.516 124.244C972.37 123.951 972.187 123.659 972.041 123.476C969.957 124.463 967.799 119.271 966.044 119.38C963.887 119.49 961.437 125.45 960.669 125.341C956.537 124.938 952.149 114.883 950.796 108.411C948.273 108.301 948.931 110.093 947.103 108.411C947.944 107.643 947.725 105.668 948.931 105.376C946.006 100.988 941.509 98.4284 936.353 96.4905L936.792 94.9182L935.402 95.5032C935.402 90.0184 935.036 91.1154 933.574 87.4954C934.671 88.3729 936.06 88.7752 938.071 88.4826C938.766 88.2998 938.949 87.4954 939.936 87.4954C940.412 81.3158 936.682 79.8532 934.561 76.5257C933.574 77.513 932.623 78.4637 931.745 79.451C937.962 87.1663 925.273 91.0788 920.995 85.5208L920.885 85.338C920.885 85.338 920.776 85.4477 920.666 85.4477C920.264 85.5574 919.825 85.5574 919.35 85.5574C916.863 85.5574 914.56 84.5701 912.987 82.7419L912.805 82.3396C912.549 81.6449 912.439 80.9502 912.366 80.292C912.256 79.5972 912.146 79.0122 912.037 78.4271V78.61C906.442 70.8947 896.35 70.3096 886.77 69.6149C880.664 77.5496 890.353 87.3126 895.765 85.5574C897.081 86.435 897.703 87.8976 896.826 89.1774C897.301 89.8721 898.105 90.4572 898.8 90.9325L898.983 91.225C899.531 91.9198 899.568 92.7974 899.239 93.8577L899.129 94.4428H898.654C898.215 94.5525 898.032 94.845 897.813 96.0882C897.776 96.4905 897.411 96.783 897.118 96.783H896.935C896.606 96.6733 896.35 96.1979 896.387 95.7957C896.533 94.9182 896.826 93.4555 897.996 93.0533C898.105 92.6511 898.032 92.3586 897.996 92.1757C896.899 91.481 895.729 90.7131 895.18 89.3236L894.924 89.5065C893.096 89.9087 890.975 89.799 891.341 92.4317C889.732 92.4317 888.854 91.737 888.489 90.4937C886.295 92.0661 885.673 92.5414 884.028 96.4539C884.137 98.9769 887.428 98.0262 888.489 99.3791C887.94 102.414 889.512 102.999 889.512 105.339C885.6 103.657 880.627 100.257 877.665 100.44L877.738 100.147C877.336 100.44 877.044 100.842 876.568 101.025C875.179 101.719 874.301 102.195 874.155 103.255C874.667 104.645 874.594 105.997 874.594 107.35C874.594 108.521 874.667 109.617 874.886 110.495L875.106 110.312C879.457 113.164 888.598 119.015 892.109 111.299C892.291 108.155 889.841 107.972 890.39 104.352C893.9 103.95 895.217 106.692 896.643 103.365L897.082 104.827L897.557 103.365C899.86 103.255 898.617 104.133 898.434 105.303C901.908 104.315 903.773 100.33 905.674 100.403C907.832 100.695 904.651 102.341 904.797 103.328C905.089 104.901 906.515 103.621 907.21 104.206C906.991 104.681 908.197 109.581 908.271 110.276C908.6 113.603 907.283 117.918 907.393 120.258C904.468 120.66 903.554 118.503 902.054 117.333C899.751 119.271 894.851 121.83 893.864 117.333C887.977 124.171 891.377 116.931 890.353 129.253C891.999 129.143 890.902 125.926 892.95 126.218L893.425 127.79L894.851 127.205C896.387 128.193 895.948 131.301 899.239 130.24C899.678 137.59 904.577 135.323 904.797 141.21C908.49 142.965 909.697 136.822 911.927 140.223C913.682 136.895 918.253 134.263 921.58 135.25C922.056 134.957 922.568 134.665 923.08 134.555C924.177 134.263 924.103 134.153 924.103 133.86C924.067 133.275 924.396 132.873 924.944 132.8C925.347 132.8 925.822 133.092 925.895 133.678C926.114 135.725 924.432 136.127 923.482 136.42C922.824 136.603 922.421 136.712 922.275 137.115L922.714 137.298C921.215 140.808 925.859 145.232 921.873 145.232C922.202 146.402 922.97 147.28 924.506 147.17C924.103 150.79 919.35 149.328 919.057 153.13C913.28 151.375 908.965 153.898 906.552 149.218C903.956 149.693 898.873 147.353 900.226 152.143C897.849 149.913 897.155 149.62 894.851 149.218C897.374 147.353 896.825 146.658 897.557 144.135C893.717 138.943 883.772 137.773 877.629 141.21C876.203 141.21 875.362 140.442 875.032 139.272C873.753 140.259 873.168 141.905 872.29 143.185C870.681 143.77 868.487 140.259 867.793 143.185C865.16 137.992 862.856 137.919 858.834 131.264C862.747 130.387 867.134 131.557 869.694 125.304C872.436 126.182 872.729 129.217 875.947 127.242C879.237 125.304 875.691 120.404 877.592 119.307C875.764 119.015 870.608 113.749 873.021 110.495C872.839 109.435 872.802 108.338 872.802 107.35C872.802 106.071 872.802 104.791 872.473 103.73V103.548L872.436 103.365C872.546 100.915 874.301 100.037 875.837 99.3426C876.349 99.05 876.788 98.8672 877.153 98.465L876.788 98.3553V96.4905L874.594 95.9054L875.032 97.368C873.935 97.1852 873.314 97.5509 873.168 98.3553C872.327 98.3553 872.509 97.1852 872.29 96.4174L871.851 94.845C871.193 94.0772 870.498 93.1996 870.096 91.9198L869.694 93.3824C868.378 92.3951 866.293 92.3951 865.123 91.4444C863.185 85.594 867.098 83.8023 865.123 79.4144C875.873 77.3668 865.562 65.1539 861.43 59.5594C857.701 59.1572 854.885 64.8248 856.933 67.4941C856.677 68.847 854.739 68.3716 853.313 68.5545C852.106 74.8072 847.279 77.6593 844.354 79.4144C840.112 77.4764 837.919 73.2714 835.359 69.5417C831.117 75.3191 835.322 81.974 839.93 85.4843C839.966 92.5414 836.675 95.8323 831.703 97.4046C831.739 94.0771 830.496 92.1392 829.07 90.4572C828.192 90.4572 828.338 91.6273 828.192 92.3951L826.547 91.8832L825.45 93.3458C823.804 88.2632 818.429 87.1663 816.455 82.3762C817.296 80.6211 819.819 80.8039 820.075 78.4637C819.965 68.8836 812.103 67.8963 807.496 63.5084C802.999 62.5212 803.584 66.6531 800.293 64.4957C802.267 67.5306 802.158 72.9057 807.496 72.4304C807.496 74.0027 805.01 75.7578 805.631 72.4304C804.863 73.1983 804.315 74.2952 803.803 75.4653C802.56 75.0631 803.913 74.5878 803.803 73.4177C802.194 73.308 801.938 74.6975 800.293 74.4781C801.902 79.2682 799.123 74.8803 798.428 79.3778C799.305 82.7053 801.134 79.5607 803.766 81.4255C804.205 81.133 804.498 80.6576 804.681 80.2554C804.79 78.6831 803.657 78.2078 803.803 76.4526C805.302 78.3175 807.313 75.0631 809.251 77.4399C809.471 79.7801 808.995 81.1695 807.496 81.4621L807.277 81.1695C806.728 82.3396 805.887 83.4366 804.534 84.2045L804.79 84.497C805.412 89.1774 801.828 88.5923 801.097 89.4699C799.452 86.9469 798.062 84.0948 794.844 83.4C794.113 84.6798 791.554 88.958 793.016 89.4699C792.906 92.9802 790.054 87.3125 790.31 90.4572C788.811 79.8898 781.352 68.847 776.818 58.5721C774.441 59.2668 770.821 61.607 768.7 59.5594C769.139 60.3272 769.578 61.1317 769.578 62.4846C768.737 62.0824 767.969 61.607 767.823 60.5466L767.64 59.3765L766.872 58.6087C766.652 56.8535 765.336 56.2685 763.252 56.561V53.6358C762.777 52.6485 758.425 54.038 757.877 50.6008C752.611 53.0507 752.282 66.2508 752.502 71.5163C750.308 75.5385 746.688 71.114 746.176 67.4941C743.543 68.9567 741.788 66.4337 739.923 69.5417C737.949 66.3971 737.108 59.8519 731.806 63.5816C730.709 61.1317 728.661 59.6691 726.357 58.6087L726.796 56.7438L725.48 55.5737C726.796 51.844 726.979 52.5388 726.357 47.639L727.674 48.1144C727.016 47.639 726.613 47.2368 726.174 46.8346C725.992 45.957 726.357 45.0794 726.796 44.0922L725.48 44.5675C717.509 44.7504 719.044 55.4275 711.914 56.4879C711.951 55.5006 713.084 55.7931 713.742 55.5006C713.048 53.0507 711.402 51.5881 711.11 48.5532C707.672 57.7311 704.784 68.2254 707.49 77.4033C699.409 78.9756 703.431 67.2381 698.421 65.483L698.86 64.0204L697.544 64.4957C693.631 60.4735 685.294 61.4608 682.296 56.4879C678.347 56.6707 676.519 60.4004 673.228 58.5355L673.045 58.4259C674.325 59.9982 675.97 62.0458 674.764 64.6054L674.983 64.4957C678.713 64.386 679.115 67.9328 680.541 70.4559C684.38 69.2858 683.685 70.1633 684.929 73.3811C688.293 73.3811 687.525 72.3207 690.377 73.3811C691.072 78.1712 694.619 79.2316 692.205 83.3635C693.156 86.2887 694.838 86.6909 697.58 85.4111C700.944 87.4588 696.739 91.5907 701.2 92.3586C700.542 95.8689 697.142 96.5636 693.083 96.3808C694.582 93.163 690.56 88.8483 688.512 86.3984C686.099 88.4461 687.89 89.2505 686.757 92.3586C684.051 92.0661 683.612 94.2234 682.296 95.3935C680.321 95.8689 681.053 93.4555 679.444 93.3458C681.857 86.3984 674.727 83.4732 672.643 78.0981C672.423 77.9883 672.277 77.9152 672.094 77.6958C671.034 77.0011 669.717 76.1235 669.791 74.3684L669.644 74.4781C666.134 71.3335 670.558 70.1633 668.694 66.4702L668.95 66.5799C668.621 64.8979 668.584 63.2525 669.059 61.607C669.096 61.4973 669.315 61.4242 669.462 61.2048L668.694 61.4973C669.315 59.34 663.684 57.5848 667.889 57.5848C667.67 55.8297 666.354 55.2446 664.269 55.5372C663.648 45.0795 662.331 52.6119 657.907 48.5897C656.81 49.1748 656.371 50.7471 656.152 52.6119L654.506 52.0269L653.482 53.5992C649.131 47.7487 646.389 40.2894 642.732 33.6344C643.171 31.404 644.049 34.8046 645.365 32.6472C644.853 30.1973 641.891 30.4898 642.732 26.687C637.906 32.1718 638.454 44.4944 646.352 42.6296C646.864 45.372 643.5 48.5897 643.537 47.6024C643.537 48.0047 644.963 48.9919 645.365 48.5897C643.646 50.4546 642.44 48.1144 640.904 51.515C638.71 50.9299 639.441 47.2002 635.529 48.5897L634.03 48.1144L632.713 48.5897C632.457 47.7122 632.019 46.8346 631.031 46.5421C630.081 47.31 629.605 48.4069 629.093 49.577C626.387 49.6867 624.194 49.1016 622.841 47.639C620.939 49.0285 621.122 52.941 618.27 53.5992C618.416 54.7693 619.952 54.3671 621.085 54.5865C619.696 61.3511 611.871 47.1637 610.262 47.639C606.203 48.8091 608.982 52.5388 607.52 57.6214C607.373 58.2065 605.326 59.2668 604.814 60.5466C602.327 67.2015 605.691 72.7595 599.439 70.529C601.194 72.3938 599.695 74.149 599.439 76.4892C602.254 78.4271 603.607 81.7546 603.936 86.4715C599.256 90.2012 594.941 91.1519 590.444 86.4715C589.603 89.3968 589.273 92.322 589.054 95.3569C588.835 97.4046 588.615 99.4523 588.177 101.536L588.688 101.427C587.518 104.754 593.149 105.522 594.064 103.365C596.111 103.767 594.905 108.85 593.076 108.338C595.928 112.067 598.854 112.433 603.022 110.276V108.338L604.448 108.85L603.973 107.387H604.85C606.24 106.509 606.167 104.169 606.715 102.414C611.213 101.061 610.152 105.851 612.968 106.436V106.619C613.187 106.509 613.48 106.509 613.736 106.436C614.101 106.436 614.504 106.327 614.796 106.253C616.405 102.341 614.504 100.184 616.625 96.4905C616.113 92.578 613.114 97.7703 613.882 92.4683C612.054 94.6256 610.299 92.1757 608.434 91.481C609.165 88.958 609.385 87.3857 607.556 85.5208C611.359 82.9613 618.965 89.0311 618.306 91.481C621.67 92.066 623.864 91.5907 628.289 92.4683L629.13 92.9436L630.081 92.4683C631.251 95.9786 634.249 99.5254 640.026 100.476C641.379 99.5985 642.878 98.9038 642.769 96.4539C643.464 98.5016 646.133 98.721 648.985 98.3919C650.338 99.6717 649.424 103.292 651.727 103.365C654.982 102.487 651.837 100.915 652.641 97.4046C653.738 98.7941 656.92 98.7941 657.98 97.4046L658.419 98.8672C658.382 97.2949 659.808 96.1248 660.832 95.4301H659.772C659.04 90.5303 660.686 88.373 661.637 85.4477C665.147 87.0932 665.549 83.1075 668.767 86.435C668.877 93.1996 669.206 100.22 663.392 100.403L663.867 98.8307C663.209 100.293 662.953 101.756 662.039 102.853L663.355 103.365V105.303C666.646 109.691 673.557 109.983 680.578 110.276C678.457 115.468 673.996 116.528 668.73 115.249C668.803 117.698 670.559 118.393 668.73 120.221C664.452 115.139 655.274 113.567 652.605 122.159C650.228 120.112 650.667 119.6 648.107 119.234L646.791 118.759C647.193 119.344 647.413 120.039 647.742 120.697L648.948 123.256V122.196C651.215 123.476 652.678 125.523 652.641 129.253C655.786 131.703 659.516 133.458 663.282 135.104C663.611 134.994 663.904 134.921 664.16 134.921C665.11 135.104 665.988 135.213 666.865 135.323C668.365 135.506 669.9 135.725 671.546 136.31C676.482 137.005 676.226 136.786 681.492 136.201C681.821 137.846 680.833 138.065 679.554 138.248C684.124 140.588 671.253 145.671 669.827 139.528C668.73 139.235 667.743 139.053 666.536 138.943C665.659 138.833 664.672 138.65 663.794 138.541C660.284 140.479 655.603 145.781 652.641 142.161C654.067 145.086 647.742 147.134 645.401 144.099C640.026 149.949 639.734 153.862 639.149 157.116C636.297 158.688 636.735 153.606 633.701 153.094L634.066 151.229L632.75 150.059C631.763 148.304 633.408 143.623 630.044 142.124C629.642 145.049 629.166 142.819 625.583 142.124C625.583 141.137 626.68 141.356 627.338 141.137C626.79 138.285 625.51 141.832 623.864 141.137C625.035 143.879 626.351 148.194 627.338 150.022C625.181 153.24 623.535 152.765 619.257 152.07C619.148 148.048 618.051 146.402 614.687 144.062C610.408 147.792 606.935 140.259 605.728 146.11H604.814C605.106 146.987 605.253 148.157 604.412 149.547L605.728 149.145C606.386 152.18 606.386 151.01 605.728 154.044C598.488 152.984 593.771 150.132 596.66 142.124C594.283 139.784 590.956 141.539 589.456 140.186C585.654 144.574 585.068 143.696 577.755 145.159C578.304 142.892 576.11 143.696 576 142.124C573.477 144.391 568.431 142.599 566.054 139.199C562.69 143.587 562.983 139.309 557.937 139.199C558.266 137.846 559.582 137.627 559.765 136.164C559.4 134.701 558.668 136.566 557.059 136.164C559.217 133.897 558.888 132.544 555.231 132.142V130.204H553.403V127.169C556.145 129.911 558.851 126.474 561.52 126.182C560.131 128.449 561.959 128.046 565.14 129.217C565.981 122.964 572.563 129.107 573.258 123.256C574.794 124.902 578.816 124.317 579.51 122.196L579.876 122.781C579.876 121.721 579.62 120.733 579.51 119.746C579.84 119.051 580.388 118.357 580.937 117.698L579.51 118.283C577.865 118.393 577.573 117.004 575.927 117.296C577.426 116.601 577.426 114.152 578.633 113.274C579.218 108.886 576.037 108.776 575.927 105.266C573.514 105.449 572.856 107.021 573.989 104.571C571.868 104.279 569.857 104.279 567.883 104.389C566.457 104.389 564.811 104.389 563.276 104.279H563.312C559.18 108.082 555.78 108.886 550.587 105.266C550.916 102.048 551.648 99.4157 547.991 99.306C550.404 96.4539 545.943 95.686 545.212 93.3458L543.896 92.1757L543.457 90.4206C542.141 83.8754 543.603 79.451 547.04 78.5003C544.444 81.3524 549.746 80.8405 548.905 77.4399L550.185 77.9518C549.417 76.3795 550.734 74.5146 551.136 72.9789L549.819 73.4543V69.5417C547.735 67.494 545.578 65.5195 543.494 63.5816C542.726 63.9838 541.885 64.4591 541.738 65.5195C540.422 64.5323 539.874 62.8868 538.996 61.4973C538.118 62.1921 538.118 63.7278 536.254 63.545C535.815 62.6674 535.339 61.8996 535.339 60.5101H531.756L531.866 60.1079C531.537 60.1079 531.208 60.2175 530.879 60.2175C529.16 60.2175 527.624 59.6325 526.637 58.1699L526.418 58.5721C525.43 58.5721 525.576 59.7422 525.43 60.5101C522.468 55.6103 517.678 63.6547 522.798 65.483C521.92 66.8359 520.384 67.4209 519.177 68.5179C518.629 71.6625 520.823 71.5528 519.177 73.4177L517.861 74.0027L517.422 75.4653C516.216 75.0631 515.996 73.7102 514.607 73.4177C512.998 73.893 511.755 80.0726 513.729 81.4255L513.327 82.8881L514.607 83.4C514.387 84.753 512.45 84.2776 511.097 84.4604C508.61 85.338 509.597 90.1281 506.599 90.4206C507.989 94.0406 505.612 95.7957 503.857 98.3553C501.772 101.281 501.663 101.975 501.151 102.378C500.31 102.963 500.419 100.44 500.2 100.44C498.957 99.8545 499.725 103.365 499.249 103.365C498.335 103.474 496.726 100.44 495.666 101.427C497.311 97.9165 493.033 95.2473 488.463 93.419C488.28 91.9564 489.194 91.7735 489.34 90.6766C489.121 89.5065 489.121 88.3364 489.157 87.3491C489.23 86.8372 489.23 86.3619 489.23 85.9596C489.157 85.8499 489.011 85.8499 488.974 85.7768C488.865 85.594 488.865 85.4843 488.792 85.3015C488.389 85.3015 488.134 85.1917 487.804 85.1186L486.963 85.0089C486.086 84.8261 485.537 84.0217 485.72 83.1441C485.83 82.3762 486.525 81.8643 487.402 81.974L488.243 82.1568C488.536 82.1568 488.974 82.2665 489.304 82.3396C489.304 82.2299 489.34 82.2299 489.34 82.2299C489.852 81.8277 490.108 81.5352 490.327 81.2427C490.364 80.0726 490.474 78.9025 491.095 77.9152C491.607 77.0376 492.594 76.7451 493.472 77.3302C494.313 77.8055 494.532 78.9756 494.094 79.9629C493.911 80.1457 493.874 80.7308 493.874 81.3158C493.911 81.4255 493.911 81.4986 493.984 81.4986V81.389C494.642 80.9136 495.41 80.3285 496.58 80.4017C496.141 78.939 497.75 75.2094 495.702 75.4288C495.812 73.4908 499.761 70.6387 501.151 73.3811L499.761 73.9662L502.138 73.2714C502.211 72.211 501.809 71.626 501.151 71.4066C503.454 70.1268 508.245 68.6642 509.268 71.4066C510.804 71.5163 508.281 66.324 511.974 66.4337H512.961C512.303 65.3733 512.413 63.5816 513.364 61.9361L511.974 62.4115C510.438 63.1793 510.438 57.7311 511.974 58.499C507.367 55.8662 504.405 55.464 494.862 55.464C497.494 56.6341 496.068 59.1937 493.033 59.4862C493.253 58.7184 493.947 58.499 493.947 57.5483C488.17 57.2557 480.564 53.4529 477.712 60.4735C476.213 64.2763 480.089 69.7611 478.626 75.4288C477.237 75.831 477.785 78.5734 474.933 77.3667C476.835 78.8294 476.579 80.877 473.763 81.2793L473.873 83.1441L473.983 83.0344L474.421 83.5098C475.116 83.9851 476.177 84.8992 476.688 86.435L476.798 86.8372L476.615 87.2394C476.177 88.0073 475.555 88.5923 475.189 88.8848C475.08 89.0677 474.86 89.2871 474.86 89.3602V89.8356L474.495 90.0184C473.873 90.7131 472.849 90.7863 472.301 90.7863C471.752 90.7863 470.655 90.6766 469.924 90.2012L469.375 89.799V89.214C469.558 86.4715 471.569 84.4239 473.398 83.3635C472.922 82.3762 472.483 81.4255 472.41 80.9136C472.63 80.5114 473.105 80.2189 473.727 79.8532L472.374 79.2681C471.204 77.9152 468.681 77.9883 468.681 75.3556L470.07 74.8803L468.681 74.4049V73.3445C467.401 73.1617 468.425 70.4193 466.852 70.4193C466.67 71.1872 465.975 71.4066 465.975 72.3573L465.536 71.8819L465.097 72.3573C462.282 72.8326 462.574 69.9074 461.514 68.4448C457.93 69.7246 452.958 66.5799 451.641 69.432L451.349 69.3223C451.787 71.2603 450.654 72.9423 449.813 74.1124C449.338 74.8071 448.899 75.3922 448.679 75.9772L448.497 76.5623H447.875C447.875 76.5623 447.656 76.672 447.436 76.672C446.229 76.672 444.84 76.1601 443.926 75.6847C443.67 75.575 443.451 75.5019 443.231 75.5019C443.048 75.3922 443.012 75.3191 442.902 75.2094C442.28 75.3922 441.586 75.5019 440.927 75.6116C440.489 75.6116 440.16 75.7213 439.867 75.7213H439.611C439.355 75.6116 438.953 75.4288 438.404 75.1363L438.222 75.0265V74.734C438.002 74.149 437.893 73.4542 437.893 72.3938C437.893 72.211 437.929 72.1013 438.075 71.9916C437.893 71.6991 437.746 71.4066 437.673 70.9312C438.002 69.4686 439.392 68.591 440.269 67.4209L439.831 66.4337C441.11 65.2636 440.233 62.704 438.953 61.4608C436.649 63.2159 437.746 68.7007 435.333 70.4559L434.017 70.9312L435.333 71.4066C432.627 75.7213 429.958 68.4813 425.387 71.4066C426.886 67.6038 421.475 71.2237 422.791 67.3844L424.071 66.909L421.475 66.4337L421.913 67.4209C418.879 68.1888 419.134 72.3938 418.22 75.4288L418.001 75.5385C419.281 76.5257 419.939 78.1712 419.975 80.4382C422.608 83.2903 414.418 90.896 420.89 92.3586C415.624 95.9786 414.893 102.341 416.392 107.314C410.944 108.594 405.861 93.419 399.206 101.354C397.597 98.4285 392.113 98.9038 391.125 102.341C388.529 102.633 388.383 100.074 385.75 100.403C390.979 103.145 379.095 104.206 382.167 100.403C380.741 100.878 376.938 103.84 378.547 104.315C375.146 102.67 368.894 94.9181 370.466 88.3729C378.218 88.1901 378.327 89.0677 382.167 88.3729L383.483 88.8848L383.081 87.4223C384.397 87.3126 386.335 87.8245 386.664 86.5447L384.288 84.9724L384.836 86.435H383.081L381.691 85.9596L382.13 87.4223C380.412 87.3126 379.095 86.8372 378.51 85.4843C378.401 82.6687 380.704 82.559 383.081 82.4493L382.606 83.9119C383.373 81.7546 385.641 81.3524 387.176 79.9995L385.75 80.4748C386.737 76.8548 381.033 79.5972 383.885 76.4526L383.958 76.3429C383.52 76.3429 383.008 76.4526 382.532 76.5257C381.655 76.6354 380.777 76.7086 379.936 76.7086C379.242 76.7086 378.73 76.1235 378.73 75.4288C378.73 74.6609 379.205 74.0759 379.936 74.0759C380.668 74.0759 381.436 73.9661 382.203 73.893C382.788 73.7833 383.41 73.7102 384.032 73.7102L383.922 73.4177H384.909C384.251 67.9329 381.07 67.5672 379.461 61.4973C377.889 61.3876 377.596 62.7771 375.878 62.4846L376.426 61.022L375 60.5466V59.5594C375.11 57.402 371.819 59.0474 370.502 58.5721C368.894 55.6469 367.797 52.2097 365.127 50.5643L365.566 48.8091L364.14 47.639C364.762 46.5786 366.224 46.5786 365.968 44.6041L366.078 44.3116C366.078 44.3116 366.041 44.3116 366.041 44.2019C365.859 44.2019 365.639 44.0922 365.42 44.0191L364.871 43.6168C363.189 41.6789 362.239 38.8268 361.946 35.0971C361.909 34.6217 362.129 34.3292 362.348 34.0367C362.239 33.7441 362.129 33.4516 361.946 33.1591L362.385 34.0367C362.385 34.0367 362.641 33.7442 362.933 33.7442H362.97C363.921 32.9763 365.018 32.3547 365.932 31.8793C366.7 31.5868 367.394 31.1846 368.016 30.7092H367.797C364.286 28.9541 365.822 24.9319 363.226 23.6521C362.897 23.5424 359.057 26.5773 358.728 26.687C358.034 26.7967 357.887 24.8222 356.973 24.6394C354.121 24.3468 350.976 27.8571 348.783 25.6266C347.832 23.0671 346.589 20.8365 344.322 19.6665C341.36 25.7363 337.008 30.1242 336.204 38.6439C339.166 40.9841 338.398 41.0938 338.946 45.5914C342.64 46.5786 347.466 44.6041 346.077 48.6263C349.221 48.8091 356.059 50.674 360.447 47.639C359.277 48.9188 359.057 52.5388 361.507 52.6119C361.069 54.0745 358.546 53.3798 359.642 56.5244C351.196 57.2923 340.482 47.5293 337.082 60.5466C334.815 60.6563 335.985 59.8519 336.204 58.6087C333.462 56.1588 327.867 57.8408 326.258 56.561C325.052 56.9632 325.563 59.084 325.381 60.5832C324.393 60.181 323.077 58.8281 324.503 58.6452C323.187 57.0729 321.468 56.1222 319.055 55.6103C320.152 54.3305 319.457 54.038 319.055 52.6851C318.287 53.0873 317.446 53.5626 317.3 54.623C315.654 53.9283 317.19 52.7582 317.3 51.5881C314.045 53.4529 311.742 53.5261 309.182 52.6485C309.438 51.4784 311.01 51.9538 311.01 50.6008C305.087 53.8186 299.309 51.5881 293.02 49.6136C291.521 48.9188 293.276 44.7138 290.278 45.5914C290.168 43.8362 291.375 43.5437 291.192 41.6789L290.717 40.6185C290.095 40.3259 289.51 40.1431 288.998 39.1558L288.523 40.6185C287.097 36.2306 282.636 35.2433 279.454 32.6838C280.149 27.6012 278.613 25.0416 275.871 23.6887V22.7014H274.993C274.811 21.8238 275.323 21.7141 275.871 21.7141C275.249 17.2166 275.761 16.7412 274.116 12.719C270.496 12.134 270.423 15.3517 266.876 14.657C267.717 15.8271 268.156 17.3994 267.863 19.6299C265.34 20.3247 265.998 17.5822 265.048 16.7047C264.389 16.8875 264.17 17.6919 263.293 17.6919C261.245 17.8016 262.963 21.8969 262.342 23.6521H265.048C267.132 23.067 264.024 22.0798 265.925 20.7269C268.997 21.3119 270.203 23.9446 269.618 28.6616C272.324 29.4294 272.909 27.6743 274.993 27.6743C273.348 29.8316 275.213 34.0367 276.822 35.6821C276.2 41.6423 270.679 42.1176 269.618 47.6024C272.032 53.6723 276.09 55.5372 268.668 60.5101V61.4973L267.351 61.022L267.827 62.4846C267.644 63.6547 266.072 63.3622 265.011 63.545C266.291 60.6198 261.428 54.1477 259.636 54.5499C258.429 55.5372 257.808 57.1826 256.93 58.5721C255.065 56.2319 253.347 59.9616 251.445 57.5848C250.275 57.8773 250.751 60.0347 250.568 61.4973C249.91 61.3145 249.763 60.5101 248.813 60.5101H248.703C248.593 60.8026 248.484 61.2048 248.264 61.6802C248.228 61.863 248.154 61.9727 248.081 62.0824C248.154 62.3749 248.264 62.6674 248.337 62.96C248.52 63.3622 248.666 63.9472 248.849 64.5323C251.994 65.4098 254.553 67.4575 254.224 74.5146C249.215 71.955 249.946 78.9025 245.156 77.4399C245.339 75.6847 244.096 75.3922 244.278 73.4177C238.062 76.4526 232.687 74.4049 228.958 79.3778C226.179 74.7706 219.633 80.5479 216.342 76.4526C212.284 77.9152 209.212 80.4748 207.384 84.4604C204.312 81.8277 202.667 86.6178 200.144 87.3857C198.974 87.7879 195.464 84.0582 195.646 88.3729C193.27 87.02 192.282 84.1679 189.394 83.4C186.688 83.5097 186.688 92.2854 189.394 92.3951C188.955 95.3204 187.968 90.8228 186.688 91.4079C185.042 92.9802 188.516 98.9404 183.945 100.403C184.823 102.048 187.127 102.158 188.443 103.328C188.918 108.118 188.918 107.533 188.443 112.323L186.798 111.738L185.701 113.311C184.896 113.311 185.042 112.031 184.896 111.263C184.055 109.106 180.874 109.691 179.411 108.338C175.133 108.63 178.607 117.333 173.159 116.272C174.475 112.25 173.342 103.474 165.407 106.29C164.566 107.058 163.652 107.277 162.811 107.35C161.97 107.533 161.385 107.643 160.873 108.118L161.421 108.301C162.299 110.166 156.302 108.886 159.593 110.239C157.765 112.396 153.669 109.069 152.463 113.274L151.475 112.799L150.598 112.323C148.55 113.676 147.234 109.764 146.978 112.323C148.806 112.323 148.184 114.956 150.598 114.261L151.475 114.737L152.463 114.261C152.719 116.601 156.741 114.846 156.046 118.283C162.518 117.406 169.539 117.881 175.865 119.271C173.89 120.331 175.17 125.231 171.294 124.244C171.513 125.706 174.036 124.536 174.036 126.182C174.073 128.741 173.305 127.461 172.208 127.169C172.72 128.046 173.159 128.814 173.086 130.204L172.208 129.728L171.257 130.204C169.941 130.606 171.659 131.484 171.257 133.129C166.65 132.727 161.86 127.937 163.176 124.244C161.019 120.514 155.827 124.646 151.439 123.256C150.232 122.854 149.025 119.454 147.929 119.234C146.941 119.124 141.164 123.439 139.738 120.221L140.213 118.759C139.226 118.649 138.019 118.649 137.032 118.283V119.271C138.092 120.551 137.873 121.318 136.081 121.209L135.643 119.746L135.204 121.209C133.558 121.977 131.84 122.964 129.755 123.256C128.22 122.269 130.523 118.869 128.878 121.209C126.611 117.004 132.937 113.786 134.253 110.239L135.35 111.702C135.862 110.714 136.74 110.239 137.507 109.764L137.032 108.301C139.336 105.559 141.091 102.048 146.027 102.341C145.15 100.586 142.407 101.061 143.321 97.368C150.634 98.0628 147.709 92.2854 150.525 89.4333C153.231 90.0184 155.754 90.896 155.973 94.3331C161.75 94.8085 164.31 95.7957 167.674 92.3951C164.529 90.1281 164.383 84.6798 161.348 82.4128C154.437 83.4732 151.293 83.4 145.113 81.4255C141.749 82.3031 139.848 84.8261 138.86 88.3729C138.019 84.0582 128.256 83.5829 130.779 91.4079C127.635 90.64 126.757 92.2855 126.282 94.3331C126.611 95.3204 126.977 96.0882 128.037 96.3808L127.635 97.8434L128.914 97.3315C130.779 100.257 127.488 104.096 125.294 102.304C126.245 105.047 119.919 104.645 125.294 106.327C124.527 109.069 120.687 108.374 118.969 110.239L118.566 108.776L117.25 108.265C118.237 106.912 117.579 106.692 117.25 105.23C116.08 103.292 106.866 105.705 109.133 101.317C106.207 100.037 108.474 104.462 105.513 103.255C105.403 104.425 105.732 105.01 106.39 105.193C104.964 104.133 98.1995 109.215 93.8116 107.241C92.3125 108.228 92.8244 111.446 91.9834 113.201C89.241 113.896 88.6925 112.14 86.6082 112.214C87.047 106.546 85.5113 99.8911 89.3506 102.231C89.3506 100.476 88.5097 99.5985 87.5224 99.1963C89.2044 95.5763 93.5191 96.6733 96.4078 97.2583C97.2854 96.5636 97.907 95.3935 98.2726 94.2234C96.6638 90.896 92.3856 93.7115 90.1551 95.2838C89.2044 93.0533 85.8038 93.419 86.5717 89.3236C80.0996 91.481 77.2841 93.0533 70.3366 93.2362C70.3366 91.2982 67.8502 91.9564 68.5084 89.3236C64.2668 88.5558 65.5831 94.004 62.1825 94.2234C62.731 93.4555 63.1332 92.6511 63.1332 91.2982C61.7072 91.7004 62.2922 94.4428 59.5498 93.2362C59.367 96.0517 62.9504 95.5763 60.3543 98.2091C60.9027 98.9038 63.9742 101.134 61.3415 102.122C61.1221 104.06 59.8424 105.559 58.526 106.327C57.685 108.082 54.1381 106.619 55.0157 110.129C54.0284 106.729 52.7121 109.069 52.2733 106.217C50.6278 106.327 49.2384 106.802 48.6899 108.155C47.2638 107.68 49.019 106.875 48.6899 105.12H47.8123V104.937C46.7885 105.339 45.8378 105.412 44.9602 105.339C44.4117 105.339 43.8633 105.339 43.3148 105.449C43.8633 107.899 41.9253 107.789 42.3275 110.129C40.353 110.714 41.1208 108.265 39.6948 108.191V107.606C39.3291 108.082 39.4388 108.959 39.9142 110.751C40.097 111.336 40.2433 111.921 40.353 112.506C41.0843 112.908 41.5231 113.493 41.779 114.078C42.035 114.59 41.9984 115.139 41.5596 115.541C41.4499 115.651 41.2305 115.724 41.0843 115.724C40.7552 115.724 40.4261 115.614 40.2433 115.212C39.9507 114.81 39.6948 114.444 39.0732 114.042L38.5978 113.859V113.274C38.4881 112.689 38.1956 112.104 38.0493 111.409C37.6471 109.837 37.0621 107.679 38.3053 106.144C37.9762 106.034 37.6471 105.961 36.9158 106.034C36.0382 106.034 35.051 106.144 34.1734 105.339H33.4787C32.9302 107.094 31.5407 108.265 29.8587 108.557C26.129 110.605 25.8365 108.374 19.8763 110.129L19.4741 109.837C19.5838 110.239 19.6935 110.714 19.8763 111.19C20.5345 113.237 21.4121 115.578 19.8763 117.15C19.7666 117.26 19.6204 117.333 19.4741 117.333C19.2913 117.333 19.0353 117.223 18.9256 117.15C18.7062 116.857 18.7062 116.382 18.9256 116.09C19.73 115.212 19.3644 113.749 18.5965 111.702C18.3771 111.117 18.2309 110.532 18.048 109.837C16.0004 109.727 14.3549 110.824 12.5998 111.885C12.1976 112.067 11.905 112.287 11.6125 112.47C11.32 113.055 10.5155 112.981 9.89393 113.164C9.60141 115.431 10.1133 116.894 11.7222 117.187C11.32 119.454 6.78587 117.004 7.15153 120.112C12.161 122.379 7.70001 126.767 9.89393 131.081C4.99416 130.094 -0.380946 131.959 0.0212735 138.139L0.0212733 0.533249H1920Z" fill="white"/>
</svg>
