<svg width="1920" height="188" viewBox="0 0 1920 188" fill="none" xmlns="http://www.w3.org/2000/svg">
<path d="M337.701 181.356C346.242 181.765 347.616 181.468 354.82 179.388C352.592 175.303 354.188 176.714 351.255 174.226H350.364C350.772 173.521 351.032 172.444 351.255 171.738L352.146 172.221V170.253C353.149 170.364 352.852 172.147 353 173.335C353.706 171.627 355.971 171.738 355.785 169.25C358.199 171.441 359.907 173.818 362.989 174.226C366.888 174.932 373.87 170.364 376.469 170.253C378.214 170.142 379.143 171.924 380.925 171.256C382.336 170.773 380.591 169.956 380.925 168.173L380.48 166.688L380.925 165.203C380.071 162.529 373.164 166.502 373.796 162.121C365.923 166.577 365.477 159.855 357.531 164.2C355.637 164.311 357.122 160.635 356.639 159.15H358.496L358.385 158.741C361.17 159.744 363.732 159.447 366.257 159.15C366.74 159.038 367.111 158.556 367.037 158.073C366.963 157.479 366.629 157.182 366.146 157.182H366.034C363.843 157.479 361.578 157.776 359.276 156.996C357.865 154.099 353.966 158.407 353.037 156.105L352.629 157.702C352.517 156.625 352.592 155.214 352.183 154.137H353.037C353.966 154.137 353.743 155.325 354.04 156.105C355.34 151.649 359.833 156.81 362.061 154.137C359.647 152.948 361.355 149.458 360.279 148.084C360.353 148.195 354.634 149.458 358.496 147.081C358.273 147.861 352.257 146.19 352.183 149.049C351.329 145.856 345.982 148.455 348.544 143.999C344.868 144.89 345.091 150.237 339.558 149.049L339.669 149.532C338.555 149.346 337.144 149.049 335.473 149.049C333.282 149.049 330.942 149.458 328.9 150.72L328.714 150.015C325.929 150.2 324.629 146.45 322.364 149.012C322.587 148.232 323.293 148.009 323.293 147.044L323.07 146.747C323.701 146.635 324.295 146.45 324.964 146.264C325.855 146.078 326.746 145.856 327.637 145.67C328.157 145.484 328.491 144.89 328.343 144.185C328.232 143.702 327.786 143.293 327.34 143.293C327.229 143.293 327.155 143.293 327.006 143.405C326.226 143.59 325.372 143.813 324.481 143.999C323.775 144.185 322.958 144.407 322.179 144.593L322.29 143.999H321.436C324.11 139.023 328.974 144.89 332.762 143.108C333.43 143.405 334.173 143.59 334.879 143.405C335.881 143.219 336.772 142.514 337.404 141.622L337.627 142.031C342.194 143.108 347.096 139.766 352.072 139.951C353.409 140.434 351.738 141.251 352.072 143.033C354.189 142.736 353.743 139.543 356.528 139.951L357.419 139.468L358.348 139.951C360.019 138.057 364.586 136.572 365.552 139.951C367.408 140.842 367.334 134.79 368.225 137.983C368.782 136.498 369.154 136.795 370.082 133.898C373.201 133.898 376.841 134.381 377.992 132.116C379.96 131.819 381.854 131.522 383.525 130.928C384.305 130.63 384.676 129.739 384.453 128.959C384.305 128.254 383.673 127.883 383.116 127.883H382.671C380.925 128.588 379.106 128.774 377.212 129.071V128.885C375.541 126.806 369.859 132.747 369.191 125.914C368.337 126.509 367.557 127.103 367.334 125.914C365.329 126.397 368.448 127.511 366.48 128.885C363.695 128.997 362.952 126.806 361.021 125.914L360.576 127.4L361.912 122.832C362.989 123.129 364.215 122.238 364.66 121.347L365.552 121.83H365.7C366.369 122.424 367.148 123.018 368.114 123.426L368.448 123.612L368.857 123.501C369.636 123.315 370.305 123.018 370.973 122.721H371.01V122.832C372.756 122.944 372.124 125.617 374.538 124.912C374.427 122.35 375.726 123.129 375.467 124.912C377.546 125.209 376.432 121.941 378.14 121.83C380.48 122.015 376.915 123.612 378.14 125.914C380.443 121.83 387.832 120.753 387.164 125.914C389.169 124.021 387.832 119.267 391.62 121.83C388.426 118.747 392.92 119.045 390.729 114.774C389.615 115.183 388.872 115.962 388.946 117.745C387.35 117.931 387.052 116.557 385.307 116.742C385.53 115.442 387.164 115.74 387.164 116.742C388.278 116.557 388.055 114.737 387.164 114.737C389.021 114.737 389.615 112.435 392.511 113.66C392.363 112.88 391.62 112.657 391.62 111.692C394.145 111.878 394.702 113.586 393.477 110.689C395.371 111.692 397.673 109.798 398.49 110.095C398.156 110.986 397.673 111.766 397.042 112.657C396.336 113.734 395.519 114.848 395.148 116.445L395.036 117.151L395.705 118.153C396.076 118.673 396.819 118.747 397.376 118.339C397.821 117.931 397.933 117.151 397.673 116.631C398.007 115.74 398.49 115.034 398.936 114.254C399.715 113.177 400.458 112.063 400.829 110.689C402.166 110.504 402.315 111.581 402.463 112.657L403.874 113.14L403.392 114.737C404.469 114.551 405.026 114.923 405.174 115.74C407.736 115.74 403.057 112.954 407.031 113.66C407.551 111.469 405.323 112.286 405.174 110.689C404.914 108.201 409.296 111.172 407.922 107.607C409.89 108.387 410.93 112.36 413.344 109.687C414.458 112.954 410.447 110.466 411.561 113.66C415.757 113.177 418.245 112.954 425.041 112.657C424.855 111.581 425.227 110.875 426.007 110.689C423.481 107.607 424.521 100.849 419.657 100.552C423.407 95.5756 425.412 89.634 436.776 90.4139C436.516 88.8171 437.63 88.7428 437.667 87.4431C439.412 90.7109 443.311 88.9285 444.871 88.4457C442.197 94.2016 449.438 83.7668 448.51 91.4165C455.714 90.9338 454.971 87.9258 460.207 88.4457L461.544 87.963L461.099 89.4484C462.584 89.0399 462.77 90.2282 462.881 91.4165C464.441 89.9311 468.228 89.634 469.194 89.4484C468.971 89.4484 474.281 86.8861 476.435 86.4776C477.735 86.1805 478.18 87.7773 479.109 87.4802C484.308 85.2893 488.318 80.4247 490.806 75.3744C492.96 78.0481 500.795 73.4806 497.119 73.2949C497.379 71.1039 501.092 73.4806 501.649 74.2975C502.318 73.4063 504.1 73.7034 504.323 72.2923H503.432L507.517 69.6928L507.071 71.1782C507.517 72.6636 515.166 73.7405 514.275 70.287C515.946 71.661 520.254 70.287 521.479 72.2551C522.705 71.5496 523.15 70.0642 523.336 68.1703C526.01 68.8759 522.445 70.3613 523.336 72.2551C525.415 72.5522 526.789 72.0694 527.792 71.1782C527.904 72.3665 527.644 73.0721 526.901 73.2578C527.792 75.8572 530.874 72.4779 530.466 70.287C531.766 70.5841 531.32 72.775 531.431 74.2604C533.511 72.9607 535.405 68.2075 537.744 70.287C540.158 69.8785 536.89 75.9314 540.418 74.2604C541.68 75.1516 543.314 75.4487 544.985 75.1516V75.3373H546.768L546.508 74.3347C546.508 74.3347 546.619 74.0376 546.694 73.9262L548.068 74.706C547.733 74.4089 547.213 74.2232 546.694 73.9262V73.6291L547.622 73.2206V72.3294C547.622 72.3294 547.808 72.5151 547.919 72.6265C549.144 72.9235 549.776 73.5177 550.333 74.2232C550.518 74.4089 550.667 74.5203 550.778 74.706L551.113 74.8917C551.67 75.0773 552.227 75.0031 552.746 74.8917L553.081 74.7803L553.303 74.5946C553.638 74.1118 553.749 73.5177 553.786 72.8864L553.86 72.5893L553.749 72.2923C553.415 71.5867 553.266 70.9183 553.155 70.1013C552.969 68.9873 553.378 68.3189 553.972 68.0961L554.306 67.9847L553.972 68.4674L554.158 68.8759C554.492 70.1756 555.272 71.2525 556.349 72.3665L556.571 72.6636L556.906 72.5522C557.203 72.4408 557.574 72.3665 557.797 72.2551C558.354 72.0695 558.874 71.958 559.134 72.0694C559.134 72.0694 559.171 71.958 559.245 71.958L558.985 75.7458C560.099 74.6689 559.988 73.2578 559.468 71.958C559.728 71.8466 559.913 71.7724 559.913 71.4753C560.025 71.0668 559.802 70.6955 559.431 70.5841C558.799 70.4727 558.205 70.6955 557.537 70.8811C557.314 70.8811 557.128 70.9926 556.98 70.9926C556.683 70.6955 556.386 70.287 556.014 69.6928C557.685 70.1013 558.911 68.0218 560.359 70.2127L561.659 69.6186L561.25 71.104C563.924 71.8095 560.359 73.2949 561.25 75.263C562.216 74.5574 562.216 72.8864 563.924 73.1835L564.518 71.9952C564.518 71.9952 564.63 72.1809 564.704 72.1809L564.444 73.7776C564.555 73.3692 564.667 72.8864 564.778 72.2923C564.778 72.4037 564.778 72.4779 564.815 72.4779C565.112 72.6636 565.372 72.8864 565.669 72.9607V73.1463V73.0349C566.449 73.4434 567.117 73.8148 567.749 74.0376L568.232 74.149L568.64 73.7405C569.308 72.7379 570.311 72.2551 571.425 71.7724C572.205 71.3639 573.096 70.8811 573.876 70.287V71.0668L574.21 69.9899C574.21 69.9899 574.359 69.8785 574.433 69.8042C574.47 69.8042 574.433 69.8042 574.47 69.6928L575.658 70.2127C575.956 67.7247 578.109 71.2896 578.406 72.1809C579.743 71.7724 578.295 71.2896 578.406 70.2127C579.52 69.8042 581.489 73.1092 579.26 73.1835C580.263 75.263 585.276 70.1013 582.937 68.1332C583.642 68.7273 584.571 69.4329 584.719 68.1332C584.496 71.0297 587.913 70.3241 589.25 67.1306C590.884 70.9183 598.385 71.9952 604.512 70.2127L604.066 68.6159L605.403 69.2101C608.262 68.6159 607.78 72.7007 609.934 70.2127C607.483 72.9978 611.27 71.104 611.716 73.1835L613.127 72.7007C612.459 74.0004 612.05 75.3744 612.682 76.2656C613.647 77.4539 614.055 78.8651 615.355 80.239H614.464V82.3186C613.833 83.3955 609.117 83.7297 606.369 82.3186C606.48 83.5069 606.146 84.101 605.403 84.3238L605.886 86.2177L604.512 87.406L604.066 85.9206L604.512 84.3238V81.4273L606.74 80.8332C605.515 80.6475 604.326 80.9446 603.101 81.8358L603.621 80.239C603.286 77.0455 600.613 79.3478 598.199 79.2364C598.199 80.239 599.313 80.0162 600.056 80.239C597.308 81.9101 588.581 76.6741 585.61 80.239L586.093 81.8358L584.719 81.3531C580.486 81.1674 578.518 78.568 576.587 81.3531C575.881 81.1674 575.695 80.239 574.804 80.239C575.436 79.2364 576.884 79.2364 576.587 77.2683C573.95 80.239 570.497 77.6768 567.6 81.3531C567.6 82.3557 568.714 82.0586 569.383 82.3557C568.603 85.7349 567.712 82.8756 564.927 83.3583C565.372 82.5785 565.818 81.7615 565.781 80.2762C564.221 80.0905 561.324 81.3902 562.216 78.308C561.139 79.7934 559.988 81.2045 558.577 82.3928C557.24 81.9101 558.911 81.0931 558.577 79.3107C556.46 78.9022 556.608 81.2045 554.046 80.3133L554.492 81.4273L554.046 82.43C554.566 86.1063 555.16 87.7773 552.264 89.4855L552.709 91.0823C551.632 90.0797 550.555 89.6712 550.036 89.4855L550.481 88.4829C548.773 88.0744 547.251 89.1884 548.625 89.4855H549.59C549.033 90.6738 549.107 92.4563 550.036 94.053L548.662 93.5332C547.548 99.4747 544.243 97.618 538.784 97.618C538.97 98.3978 539.675 98.6206 539.675 99.6232L539.23 101.109L538.784 102.594C549.144 106.456 557.128 99.9203 563.107 106.679C563.961 106.493 563.775 105.082 564.667 104.785C565.446 105.379 566.338 105.565 567.08 105.676C567.303 105.676 567.452 105.788 567.674 105.862C567.86 106.567 568.789 106.456 569.42 106.642L569.234 106.047C569.457 106.047 569.68 105.862 569.791 105.639C569.828 105.453 569.791 105.453 569.791 105.231C570.757 105.416 571.648 105.528 572.539 105.119L572.094 106.604C573.059 106.716 572.799 107.904 573.059 108.573C574.062 107.793 575.473 107.273 577.589 107.57C578.666 106.27 577.924 105.973 577.589 104.599C581.117 104.302 581.934 108.981 583.011 104.599C585.165 104.711 583.197 107.978 582.046 107.57C585.796 108.164 582.38 108.758 585.685 110.652C585.128 111.655 583.828 111.729 583.939 113.326C582.565 113.92 581.6 114.997 580.82 116C580.263 116.705 579.706 117.485 579.038 117.893L578.629 118.079L578.518 118.488C578.443 118.785 578.443 119.267 578.406 119.787C576.104 118.005 574.879 121.273 574.841 117.708C571.165 119.676 566.932 116.222 568.603 119.787H567.637C567.637 119.787 567.452 119.787 567.377 119.676C566.969 119.564 566.523 119.379 565.966 119.267H565.744L565.521 119.379C564.332 120.159 564.704 121.57 564.852 122.461C564.964 122.758 565.075 123.166 565.001 123.352C564.964 123.538 565.001 123.649 565.001 123.761C564.295 123.946 563.887 124.763 563.33 125.357L565.112 124.058C565.112 124.058 565.298 124.355 565.446 124.355C565.855 124.466 566.226 124.243 566.338 123.872C567.192 124.169 568.194 124.28 569.42 124.28L568.566 124.875C568.751 125.654 569.42 125.877 569.42 126.88C570.274 126.769 570.088 125.58 570.311 124.875C576.513 127.957 576.847 127.474 581.117 125.877C581.117 127.883 578.666 127.177 579.26 129.851C576.735 130.742 576.958 128.44 574.804 128.848C575.101 130.556 573.95 130.63 573.913 131.93C573.208 132.116 573.059 131.522 573.022 130.928L571.685 131.41L572.094 129.814C570.979 129.628 571.202 127.845 572.094 127.845C571.091 125.766 566.635 128.328 567.637 131.93C566.412 131.225 565.892 129.739 565.781 127.845C560.805 127.251 552.078 134.307 558.577 136.98C557.054 134.084 564.035 135.904 566.709 135.978C566.301 139.766 562.736 135.198 564.927 138.949H565.781V139.951C565.892 141.028 567.155 140.954 568.157 140.954C568.046 142.625 567.897 144.333 567.266 145.818C567.155 145.818 567.006 145.93 566.895 146.004C566.449 146.301 565.929 146.598 565.669 147.192V147.304L563.553 146.524C564.258 147.118 564.927 147.304 565.632 147.415C565.595 147.712 565.669 148.121 565.892 148.195C566.003 148.306 566.189 148.306 566.338 148.306C566.375 148.715 566.449 149.012 566.56 149.309C567.563 149.606 568.306 149.123 568.974 148.604L567.006 147.824C567.006 147.824 567.266 147.527 567.563 147.415C567.786 147.23 568.009 147.118 568.232 146.933L568.417 146.635C569.234 144.853 569.457 142.848 569.605 141.065H571.277C571.499 139.394 570.385 139.283 570.311 137.983C576.401 135.495 580.969 136.015 584.756 135.012C586.65 135.495 587.764 136.906 588.396 138.986C589.695 138.577 587.987 137.686 588.396 136.015C591.515 136.498 594.188 137.5 598.273 137.018C599.684 132.636 591.701 133.75 594.634 130.965C594.523 128.402 591.626 130.668 591.069 130.965C594.077 122.721 597.271 134.827 599.165 126.88C600.501 128.068 601.504 128.068 602.804 126.88L602.729 126.583C604.066 126.769 605.143 126.88 606.034 126.583C606.369 126.583 606.554 126.286 606.703 126.1C607.037 126.397 607.408 126.694 607.705 126.88L607.26 127.883C607.408 129.071 607.074 129.665 606.406 129.851C606.814 132.821 614.724 134.715 613.536 130.928L613.981 129.331L614.13 128.848V129.034C613.981 129.814 614.464 130.705 615.207 130.928C615.504 130.928 615.727 130.816 615.949 130.742C617.843 131.225 619.589 132.153 621.371 133.044C623.153 134.047 625.121 135.012 627.275 135.607C627.907 135.718 628.464 135.421 628.575 134.715C628.612 134.604 628.575 134.53 628.575 134.418H631.137L629.8 135.012C627.907 139.283 631.806 136.98 633.44 135.012C634.702 139.468 638.638 135.012 639.753 138.986C643.169 135.718 646.882 136.089 650.559 137.018C650.373 136.238 649.593 136.015 649.593 135.049C658.617 135.049 670.908 135.532 675.699 131.967C675.439 126.1 670.166 130.593 668.569 124.912C668.755 124.021 669.534 123.835 669.534 122.832C670.314 125.692 674.436 127.808 679.338 125.914C677.778 123.315 680.749 121.941 677.555 121.83C680.898 120.641 680.081 118.636 679.338 114.774C679.969 112.806 685.576 116.854 686.542 114.774C687.916 115.554 686.319 116.259 687.545 118.859C688.956 118.562 688.993 119.75 690.181 119.861V118.859C690.738 119.156 691.406 119.342 692.038 119.453C692.483 119.045 693.04 118.376 693.375 117.262L693.82 116.779C699.947 116.482 700.802 116.185 705.518 117.782C704.181 113.103 705.666 117.002 707.374 113.697C708.266 109.909 703.958 112.1 704.626 108.647L703.252 109.241L703.735 107.644C701.507 107.533 703.512 104.376 704.626 104.674C702.992 103.077 701.841 100.997 701.878 97.618C707.783 99.1033 712.425 99.9946 716.324 99.6232C716.881 101.814 713.984 102.817 717.066 102.594C717.289 103.597 717.623 104.562 717.958 105.379L718.255 105.862L718.812 105.973C719.703 106.085 721.337 105.862 722.599 105.49L722.934 105.305L723.156 105.008C723.899 103.634 724.345 102.334 724.493 101.628C727.613 101.331 726.647 98.8434 729.841 100.626C737.713 91.008 749.002 99.2147 761.331 98.6577C761.368 101.74 757.654 105.49 761.331 106.716H762.296V107.719C767.866 104.636 770.54 98.175 776.667 95.6127L776.147 94.1273C777.484 94.6101 778.264 94.2387 779.378 93.6074V94.6101C779.155 98.175 782.943 96.3925 783.834 96.5782C784.614 96.7639 784.503 98.5463 784.725 98.6577C785.914 98.8434 785.134 96.6525 785.691 96.5782C788.587 96.0954 790.704 99.2519 792.895 100.663C795.754 102.557 797.314 102.668 799.913 104.822C799.951 105.008 799.913 105.231 800.025 105.416C800.47 106.122 800.173 107.31 799.691 107.978C798.502 107.867 797.351 107.978 796.46 107.57C795.903 107.273 795.234 107.57 795.012 108.276C794.789 108.87 795.012 109.575 795.569 109.872C796.571 110.355 797.648 110.466 798.539 110.466C799.022 110.466 799.505 110.466 799.876 110.578L800.322 110.689L800.693 110.392C802.216 109.092 802.921 106.53 802.03 104.525C805.892 98.472 809.568 100.254 815.361 97.6551C811.722 104.116 820.597 94.0902 821.711 99.6603C825.016 98.6577 824.051 97.4694 827.95 98.6577C825.648 101.74 826.167 101.443 826.167 103.708C827.542 105.193 830.252 105.193 829.807 108.684C827.467 106.382 826.725 108.498 824.348 106.716C821.674 108.424 824.459 111.581 822.565 112.769C826.427 111.989 828.433 118.45 824.348 121.904L825.759 122.387L824.348 122.869C824.125 125.543 825.685 126.249 827.987 125.952C829.064 128.848 821.674 129.405 826.205 129.925C826.836 131.596 821.971 131.596 822.565 129.925C821.786 130.705 821.229 131.819 820.857 133.007L820.672 133.193C820.672 133.193 820.449 133.081 820.337 133.081H820.115C819.223 133.378 818.592 133.973 817.924 134.455C817.367 135.049 816.847 135.347 816.141 135.458L816.253 135.049C812.131 132.97 807.229 137.129 807.266 129.888C799.022 132.19 797.834 126.397 795.569 121.83L794.677 122.312L793.712 122.795C788.513 123.092 789.293 131.745 782.906 127.845L781.606 128.328L782.052 126.843C781.68 125.952 781.272 125.06 780.269 124.838L779.824 126.323L779.378 124.838C778.524 124.54 778.487 125.246 778.413 125.84C777.521 125.729 777.744 124.54 777.521 123.761C774.328 127.548 771.431 125.543 766.715 127.845C766.121 130.63 768.572 129.925 768.572 131.93C763.225 128.142 758.583 133.416 755.092 131.93C757.209 134.01 756.206 133.713 756.837 137.983C764.858 137.872 777.41 138.874 786.545 139.951C785.914 138.354 790.444 136.758 791.967 139.951L793.378 140.434L792.932 142.031H797.388C797.388 138.243 800.396 138.949 801.807 139.951V140.248C801.51 141.14 801.77 142.142 802.439 143.033C803.144 143.813 804.221 144.222 805.075 143.925L805.187 143.813L805.298 143.702C805.558 143.405 805.929 143.219 806.263 142.996C806.598 142.699 806.969 142.402 807.377 141.994C809.717 141.697 806.523 147.675 810.125 145.967L811.462 145.559L812.799 145.967C813.987 144.667 813.987 142.291 811.871 141.994C813.467 140.1 815.658 138.8 817.292 136.943C817.961 136.646 818.592 136.238 819.149 135.866C819.557 135.458 819.929 135.272 820.337 135.087C821.971 135.384 822.008 137.575 821.897 139.951C822.714 139.951 822.565 138.763 822.714 137.983C829.064 140.657 834.486 135.495 837.159 136.015L836.714 134.418C838.236 135.495 839.722 135.718 841.244 134.418L840.798 136.015C840.576 138.206 841.504 139.209 843.472 138.986C844.4 137.686 844.363 135.309 845.329 133.935C844.141 137.797 851.79 135.532 855.207 138.986L856.581 139.468L856.135 141.065C857.212 142.662 860.888 140.954 858.809 138.986C864.565 137.278 867.684 142.662 869.615 142.068V143.962L866.384 143.553C866.495 143.739 866.607 144.036 866.718 144.259C867.832 145.447 869.392 144.853 870.506 144.073V145.076C871.174 144.37 872.92 143.479 873.18 145.076C873.885 144.964 873.848 144.593 873.551 144.296C875.408 145.076 880.235 142.514 881.238 145.076C882.872 144.37 881.424 143.293 881.238 142.105H882.129L881.683 140.211L883.095 139.023L883.54 140.508L883.095 142.105C882.649 146.264 885.508 141.102 885.768 145.076C886.845 141.882 890.967 139.803 893.529 143.59H890.744C891.933 144.073 892.453 145.559 893.529 145.967C894.012 145.484 894.532 144.482 895.2 143.59L894.792 145.076C895.498 145.67 896.24 146.153 897.466 146.078C897.169 144.482 898.357 144.407 898.394 143.108L897.948 141.511C899.137 143.182 900.474 141.994 901.81 141.511H902.776C902.702 142.402 902.887 142.996 903.11 143.516L903.221 143.813L903.481 143.925C904.744 144.222 905.932 144.63 907.158 145.002C909.609 145.781 911.948 146.487 914.696 146.487C915.327 147.787 915.884 148.566 916.479 149.161H916.441C917.518 150.349 916.701 151.76 916.441 150.163C915.104 154.025 920.341 151.946 922.791 152.057C924.091 153.542 925.762 153.357 927.099 153.245C927.767 153.134 928.436 153.06 928.993 153.245C929.178 154.025 929.401 154.842 929.476 155.733C929.661 156.328 929.735 157.033 929.921 157.702L929.995 158.11L930.367 158.221C931.147 158.63 931.815 158.407 932.483 158.221H932.781L933.338 157.627L933.523 158.333C934.303 157.627 935.157 157.033 935.38 158.333C936.642 157.85 935.268 157.442 935.38 156.253C936.494 156.365 937.682 156.365 937.942 155.548C938.685 155.139 939.465 155.362 940.616 155.845C941.47 156.253 942.51 156.625 943.809 156.625C943.884 156.513 943.921 156.625 944.032 156.625C944.069 156.922 944.144 157.107 944.218 157.404C944.664 157.516 945.221 157.702 945.74 157.813L944.664 156.216H944.775C945.703 155.214 947.634 155.733 949.417 156.216C949.862 156.402 950.271 156.513 950.642 156.625C950.976 158.518 951.645 160.19 952.833 161.378L950.271 162.752L950.939 165.054C950.939 165.054 950.642 165.166 950.605 165.24C950.382 165.425 950.382 165.723 950.419 166.02C949.899 166.205 949.64 166.428 949.342 166.799L950.456 166.205C950.456 166.205 950.494 166.391 950.568 166.502C953.687 169.696 957.029 167.691 960.037 165.908C961.485 165.017 962.897 164.237 964.345 163.829L964.159 164.311C968.021 163.123 968.133 165.908 970.509 166.317C970.546 163.717 972.069 162.752 973.183 161.266C972.886 159.298 970.88 159.298 969.655 158.296C969.618 157.999 969.618 157.59 969.618 157.219C969.581 155.845 969.432 154.248 968.095 153.134L968.652 152.725C969.098 153.802 973.443 153.023 970.509 154.211C972.514 152.911 974.483 158.964 975.857 155.214C976.525 158.89 976.711 156.81 979.496 160.264L980.387 159.781L981.352 159.298C983.58 158.704 984.323 158.518 987.665 157.219V159.113L984.472 159.818C986.031 159.93 987.814 160.412 988.928 158.816L988.482 160.301C991.342 160.19 997.506 159.521 994.795 154.248C998.917 155.436 996.577 157.627 998.434 161.304C1001.66 158.704 1004.97 162.38 1008.35 157.219C1009.69 157.702 1008.01 158.63 1008.35 160.301C1011.02 157.813 1014.14 161.006 1016.44 159.298C1016.33 158.518 1015.55 158.296 1015.55 157.219C1018.15 157.999 1018.15 160.709 1020.01 157.219L1020.12 157.107C1020.12 157.887 1020.01 158.704 1019.79 159.484C1019.45 160.672 1019.12 161.972 1019.45 163.346C1018.41 164.349 1017 164.646 1015.11 164.237C1015.03 164.051 1014.92 163.94 1014.88 163.754C1014.59 163.272 1014.25 162.678 1013.59 162.38C1013.47 162.269 1013.36 162.269 1013.25 162.269C1012.92 162.269 1012.58 162.566 1012.47 162.975C1012.25 163.457 1012.51 164.052 1012.92 164.274C1013.03 164.386 1013.18 164.683 1013.33 164.868C1013.51 165.277 1013.7 165.648 1014.14 165.945L1014.48 166.131C1016.89 166.725 1018.9 166.428 1020.38 165.128C1021.9 167.134 1023.83 167.616 1025.8 167.802H1025.91C1026.32 167.802 1026.69 167.394 1026.77 166.911C1026.8 166.428 1026.51 165.908 1025.99 165.834C1023.76 165.648 1022.31 165.128 1021.23 163.272C1020.83 162.38 1021.09 161.489 1021.46 160.19C1021.68 159.298 1021.87 158.296 1021.87 157.219C1024.09 155.139 1019.23 152.466 1021.87 149.161C1016.52 151.352 1015.44 144.704 1013.73 140.026C1010.76 146.487 1002.07 143.59 998.471 142.105C999.771 140.211 1002.82 142.625 1007.5 142.105C1008.39 137.352 1004.3 138.243 1005.71 132.97C1002.82 134.047 1003.63 133.081 1000.25 132.97C1001.03 130.965 997.357 126.62 999.177 123.241C999.177 123.129 999.177 123.241 999.251 123.241C1000.29 122.758 1001.33 122.052 1002.15 121.347C1002.82 120.864 1003.48 120.344 1004.15 120.047C1004.64 120.344 1005.19 120.53 1005.64 120.641C1005.82 120.641 1005.94 120.753 1006.08 120.753C1007.09 122.052 1008.05 123.129 1009.2 124.132C1009.65 124.429 1010.17 124.318 1010.39 123.946C1010.69 123.464 1010.54 122.944 1010.21 122.535C1009.02 121.644 1008.2 120.641 1007.12 119.342L1006.79 119.045C1006.49 118.933 1006.27 118.933 1006.01 118.859C1005.53 118.747 1005.08 118.562 1004.71 118.265L1004.3 117.856L1003.86 118.042C1002.85 118.525 1002 119.119 1001.18 119.713C1000.51 120.233 999.92 120.604 999.288 121.013V120.827C992.493 120.716 987.591 117.745 983.061 113.66C985.512 112.286 984.917 107.719 986.7 105.602C990.042 106.679 993.83 106.976 995.724 109.687C996.132 106.902 996.392 109.39 999.363 107.607C1004.49 116.148 1018.15 105.119 1023.61 111.692C1025.36 109.315 1029.48 109.501 1033.49 107.607C1031.26 102.557 1036.72 100.663 1040.73 99.5489C1040.54 98.7691 1039.84 98.5463 1039.84 97.5437L1039.73 97.1352C1041.25 97.618 1042.85 97.618 1044.41 97.1352L1044.3 97.5437C1052.98 93.9788 1055.77 103.597 1062.34 105.602V107.607L1062.79 107.496C1062.6 108.498 1062.6 109.575 1062.68 110.578C1062.71 111.766 1062.68 112.769 1062.34 113.771V113.66C1059.82 113.177 1060.11 112.88 1056.92 111.692C1053.02 117.559 1047.38 115.257 1042.55 119.824C1043.18 122.907 1040.95 122.795 1041.62 125.877V126.88C1040.99 126.471 1040.28 126.583 1039.62 126.694C1039.5 127.177 1039.43 127.771 1039.39 128.365L1040.95 127.363C1041.32 128.068 1041.62 128.737 1041.62 129.851C1044.48 128.774 1043.7 129.851 1047.08 129.851L1046.6 128.365C1047.27 129.962 1048.45 130.556 1049.72 131.262C1049.61 131.447 1049.53 131.67 1049.61 131.967C1049.64 132.153 1049.75 132.264 1049.87 132.376L1048.34 133.973C1048.79 133.564 1049.35 133.081 1049.87 132.487C1050.09 132.599 1050.31 132.673 1050.57 132.673L1051.65 132.376L1051.87 132.19C1053.5 129.888 1052.09 128.105 1051.09 127.028L1051.57 126.917C1052.54 127.92 1052.87 127.511 1053.76 127.103C1055.88 129.071 1058.85 129.962 1061.45 128.699V128.885C1062.97 130.668 1064.46 127.994 1067.76 128.885C1068.4 133.341 1065.91 128.105 1065.91 130.965C1066.58 134.938 1071.14 133.638 1073.15 131.967C1076.79 136.349 1083.29 134.047 1088.49 132.97C1089.6 130.593 1088.26 131.076 1089.38 127.92C1095.58 124.949 1104.86 127.92 1109.17 128.922C1110.39 128.625 1109.87 126.434 1109.99 124.949L1108.72 124.355L1112.29 125.357L1110.95 125.952C1113.14 132.302 1112.03 125.357 1115.48 127.957C1116.37 124.28 1117.6 120.901 1120.9 119.899C1119.38 113.957 1115.56 119.713 1112.77 116.816C1111.25 115.22 1111.58 113.437 1108.32 113.734C1108.2 111.061 1109.76 111.766 1108.32 109.761C1102.08 110.875 1098.77 119.379 1092.98 117.819C1093.46 119.899 1095.73 119.787 1093.87 121.904C1092.87 121.718 1093.39 120.901 1093.87 120.901C1092.35 118.005 1089.01 121.384 1087.56 121.904C1085.89 121.718 1087 118.413 1085.7 117.819C1086.37 120.196 1077.79 124.392 1075.82 118.896C1071.63 122.164 1073.59 120.567 1066.84 119.899C1067.28 119.119 1067.8 118.228 1067.73 116.816C1065.98 116.705 1064.72 116.111 1064.09 114.811L1063.87 114.923C1064.42 113.437 1064.42 111.952 1064.35 110.541C1064.31 109.835 1064.31 109.241 1064.31 108.647C1070.44 106.976 1079.02 102.78 1082.99 104.674C1083.1 106.456 1081.91 106.753 1082.1 108.647C1084.21 109.427 1085.22 111.246 1086.63 112.732C1088.49 110.652 1091.64 111.358 1091.16 104.674C1094.8 103.3 1094.02 106.864 1096.51 106.679C1099.4 98.732 1107.2 96.4668 1110.95 89.4855C1114.93 89.1884 1114.96 92.4563 1118.16 90.4881C1116.82 97.0609 1124.06 98.3235 1127.18 96.5411C1128.52 97.0238 1126.77 97.8408 1127.18 99.6232C1130.52 100.329 1132.49 102.483 1136.17 102.594C1138.91 102.78 1141.81 99.4004 1144.3 99.6232C1147.05 99.8089 1145.97 104.302 1148.75 101.591C1147.83 104.562 1147.31 106.456 1151.43 105.676C1146.08 107.162 1149.01 112.323 1145.12 114.811C1145.34 115.888 1146.97 115.517 1146.97 116.816C1146.38 118.19 1144.6 116.334 1142.44 117.819V122.869C1144 122.572 1144.56 123.166 1145.45 123.649L1142.89 126.434C1143.82 126.546 1144.78 125.357 1146.23 125.135C1146.34 124.429 1146.45 123.649 1146.04 122.832H1146.93C1148.46 122.127 1150.83 124.912 1148.72 124.912C1149.61 128.18 1150.5 123.723 1151.39 123.835C1151.69 125.617 1155.29 128.699 1160.41 127.92C1160.01 131.782 1159.45 131.485 1161.31 133.973C1163.27 132.784 1166.39 132.896 1167.66 131.002C1169.66 131.485 1166.54 132.487 1168.55 133.973C1169.74 132.97 1170.29 131.299 1172.11 131.002C1169.33 135.087 1172.37 135.458 1175.68 135.087C1172.04 137.872 1173.11 140.248 1172.11 145.113C1173.19 143.925 1175.31 143.925 1177.53 144.11C1180.1 145.002 1179.65 150.98 1176.64 153.245C1176.12 153.654 1170.52 155.251 1170.33 155.251C1169.1 155.251 1167.54 153.245 1167.66 153.245C1166.21 153.542 1165.95 155.845 1164.91 156.216C1162.9 157.219 1159.89 154.248 1159.49 157.219C1154.4 156.922 1153.73 151.574 1149.57 150.163C1149.91 152.54 1151.47 155.325 1148.68 153.245L1148.27 154.731L1146.9 155.214C1145.56 159.075 1144.11 162.863 1144.22 168.322C1145.75 167.431 1150.98 162.566 1151.35 168.322C1156 168.916 1157.04 160.969 1159.49 167.319L1158.15 167.802C1159.04 167.913 1159.93 167.394 1160.9 166.799L1160.41 168.285C1166.39 169.362 1172.45 167.691 1181.17 172.37C1186.3 167.616 1198.63 167.691 1200.97 172.37C1203.6 172.258 1206.87 172.964 1208.17 171.367C1209.36 174.561 1200.19 179.611 1203.64 185.552L1205.05 184.958L1206.39 185.552C1207.46 185.664 1208.02 185.255 1208.17 184.55C1209.25 184.661 1208.65 185.552 1208.17 185.552C1210.58 189.117 1212.37 184.847 1214.48 184.55C1219.35 183.658 1226.81 184.735 1229.82 179.499L1228.45 179.982L1228.93 178.497C1229.15 177.309 1230.71 177.717 1230.71 176.417L1230.41 176.232C1232.05 175.452 1233.09 174.263 1233.64 172.37C1233.87 171.59 1233.61 170.884 1232.94 170.587C1232.75 170.476 1232.6 170.476 1232.49 170.476C1232.01 170.476 1231.53 170.884 1231.38 171.367C1231.04 172.37 1230.67 173.038 1229.74 173.558V173.447C1226.4 171.961 1230.12 167.876 1227.07 165.314C1229.04 162.937 1239.51 163.235 1242.41 165.314C1244.82 165.611 1243.08 161.452 1245.97 162.232C1246.6 157.256 1241.52 158.556 1239.73 156.179C1239.14 160.747 1227.15 153.097 1223.51 159.261C1222.06 156.662 1221.2 154.285 1218.08 156.179C1220.09 151.129 1231.64 151.203 1233.42 155.176C1234.54 154.879 1234.76 153.394 1236.09 153.171L1235.65 151.277L1236.99 150.089C1232.79 145.41 1223.95 152.057 1226.18 139.951C1226.63 138.763 1227.37 137.872 1228.93 137.983C1230.12 135.421 1226.25 133.824 1228.93 132.933C1227.26 131.745 1224.69 133.527 1222.61 130.928V129.851L1221.2 130.445L1221.65 128.848C1222.17 126.769 1220.05 120.901 1224.43 120.79C1222.58 117.411 1219.53 116.408 1218.08 110.652C1219.2 107.867 1221.54 108.164 1219.94 104.599C1222.69 103.819 1222.54 106.27 1225.29 105.602C1225.21 101.22 1223.77 98.5463 1224.43 93.496C1226.33 91.3051 1228.19 89.0399 1231.56 88.4457C1232.79 90.4139 1234.09 92.4191 1237.91 91.4165C1240.48 95.5013 1238.99 96.5782 1238.77 102.557C1240.63 102.557 1239.96 105.342 1242.41 104.636C1239.44 114.366 1249.5 109.687 1254.1 112.695C1253.44 115.962 1247.87 113.883 1247.79 117.745H1246.9L1246.46 119.23L1245.97 117.745C1243.45 119.342 1244.41 122.127 1245.97 123.798C1248.09 120.716 1246.6 123.389 1249.61 123.798C1249.57 119.713 1255.74 122.721 1255.07 117.745C1257.26 117.633 1259.3 117.633 1260.42 118.822C1259.42 119.899 1259.42 122.312 1259.53 124.875C1262.72 123.092 1262.72 124.875 1266.73 124.875C1265.21 121.31 1263.31 119.602 1264.06 111.655C1268.18 112.249 1270.7 111.655 1273.04 115.74C1269.29 115.74 1275.05 117.931 1271.26 119.824C1271.37 121.533 1277.5 121.421 1274.9 122.795C1276.09 123.501 1278.76 123.204 1279.36 120.79L1278.28 120.901C1279.06 120.493 1279.84 119.899 1280.47 119.23C1280.36 118.228 1279.58 117.262 1278.91 116.259L1280.25 116.742C1280.4 115.962 1281.14 115.74 1281.14 114.737L1280.69 113.66L1281.14 112.657C1275.27 111.061 1284 109.278 1278.5 106.716C1278.69 106.01 1278.84 105.713 1279.24 105.416C1283.37 104.414 1287.27 103.04 1290.16 100.552L1289.72 99.0662C1291.24 100.143 1292.72 99.9574 1294.17 100.069L1291.05 99.3633C1290.72 97.0609 1289.94 95.2785 1289.27 93.496C1288.27 93.6817 1288.79 94.4987 1289.27 94.4987C1287.3 95.3899 1284.82 95.5756 1282.07 96.4668C1280.21 95.8726 1279.99 93.3846 1278.43 92.4934C1276.65 92.6791 1276.57 94.7957 1275.87 96.1697C1274.23 96.4668 1272.64 96.8753 1271 97.5437C1269.33 97.7294 1268.77 96.8381 1267.58 96.4668L1267.14 98.0636L1264.47 96.0954L1265.8 96.5039C1267.47 93.3104 1263.83 90.3396 1267.58 89.4484C1266.51 87.963 1264.17 87.963 1263.05 86.4776C1263.76 85.475 1264.06 84.2124 1263.98 82.3928L1262.61 82.9127C1263.17 82.0215 1263.95 81.1303 1263.98 79.942L1264.84 79.3478C1270.74 67.8361 1261.09 63.0829 1255.85 58.1069C1256.48 57.1043 1257.93 57.1043 1257.71 55.1361C1256.15 57.6984 1254.51 53.5394 1257.71 54.1335L1257.6 53.725C1258.15 53.6136 1258.78 53.5394 1259.23 53.428L1259.56 53.3166L1259.79 53.0195C1260.42 52.0168 1260.79 51.1256 1261.01 49.7516C1261.12 49.1575 1260.68 48.4519 1260.16 48.3405H1259.94C1259.45 48.3405 1258.93 48.749 1258.86 49.2318C1258.75 50.0116 1258.52 50.7171 1258.26 51.1999C1258.04 51.3113 1257.82 51.3113 1257.6 51.3113L1257.71 51.0142C1257 50.0116 1256.04 49.5288 1255.03 49.009L1253.66 49.5288C1253.47 48.3405 1253.55 47.0408 1252.69 45.444L1254.1 44.9613V43.9587C1257 43.9587 1260.46 43.5502 1260.42 46.9294C1262.31 46.0382 1264.43 45.444 1265.84 43.9587C1266.55 44.1443 1266.73 44.9613 1267.62 44.9613C1267.51 49.9373 1263.5 50.4201 1263.09 55.099C1269.4 56.1016 1275.23 57.0671 1276.57 57.0671C1278.69 57.0671 1276.27 59.8522 1274.83 59.0724C1275.05 60.8549 1276.31 61.449 1278.39 61.1519L1278.84 59.3695L1279.28 61.1519L1278.84 61.6347L1278.39 62.1174C1276.76 62.006 1276.5 63.4171 1274.83 63.1201C1277.13 66.0165 1275.72 64.9025 1274.83 68.1703C1275.94 69.8785 1277.8 70.9554 1280.17 71.1411C1280.66 74.5203 1279.54 75.8943 1279.28 78.308C1281.51 78.1966 1283.63 78.1224 1284.7 79.3107C1285.41 82.2072 1283.48 81.9843 1283.81 84.3609C1287.27 86.2548 1288.23 90.9338 1294.62 89.4112C1292.54 83.3583 1296.36 79.8677 1300.04 77.3054C1299.71 75.8943 1298.41 75.7086 1298.18 74.2232C1300.86 74.5203 1297.7 71.4382 1301.82 70.2499C1302.38 66.982 1298.59 68.7645 1300.86 66.1651V65.7566C1302.19 66.1651 1303.61 66.2393 1304.94 66.1651C1306.09 66.0537 1307.1 66.1651 1308.17 66.4622C1308.25 66.982 1308.58 67.1677 1309.03 67.1677C1309.36 69.6557 1307.36 69.3586 1308.14 72.218L1309.47 71.7352C1309.06 73.1092 1309.06 74.4089 1309.03 75.82L1308.14 75.3001C1304.46 76.5999 1302.9 82.6528 1305.46 85.3264C1303.35 87.703 1298.44 86.9232 1299.15 92.4934C1299.82 91.8992 1300.52 91.4165 1301.82 91.4165C1299.48 92.4934 1300.08 96.9867 1299.15 99.5489C1301.3 99.1405 1301.12 101.443 1303.68 100.552L1304.98 100.069L1305.35 101.443L1305.46 101.554H1305.5C1306.06 102.334 1306.95 102.965 1307.73 103.151L1305.87 101.071C1306.8 99.7718 1308.06 98.8063 1308.1 96.5039C1306.46 96.6896 1306.2 95.3156 1304.46 95.5013C1309.03 96.2811 1312.15 85.9577 1317.94 88.4457C1317.75 84.3609 1317.83 84.2867 1320.61 85.3636C1321.47 79.9048 1329.08 78.9022 1326.96 73.2578L1325.63 72.0694L1326.07 70.287H1323.4C1322.66 67.0934 1324.88 67.3162 1324.25 64.2341C1319.8 66.7221 1320.24 60.4464 1316.16 63.1572L1316.23 63.4543C1315.38 63.2686 1314.56 63.1572 1313.59 63.1572H1312.59L1312.37 63.3429C1312.41 63.1572 1312.55 62.8601 1312.59 62.6373C1313.04 61.449 1313.45 60.2607 1313.71 58.961C1314.71 58.4782 1315.01 57.3642 1316.16 57.0671C1317.12 57.7727 1317.12 59.4437 1318.9 59.0724C1318.38 58.2926 1317.94 57.4756 1317.94 56.1016C1322.58 60.1864 1334.13 57.587 1339.59 58.0698C1341.22 57.3642 1339.7 56.2873 1339.59 55.099H1340.55L1340.03 53.5022L1340.55 52.0168C1339.77 47.5607 1343.52 47.9321 1345.08 45.9639C1343.64 42.2134 1342.89 37.6458 1342.3 32.8555C1337.55 35.1207 1334.65 30.1818 1333.31 33.8581C1332.01 32.5584 1331.57 30.3675 1331.53 27.8052C1331.94 25.5029 1335.95 27.3224 1337.84 26.8026C1341.63 31.6672 1352.33 28.4736 1355.85 35.8262C1358.82 36.4204 1360.05 35.1207 1362.17 34.8236C1361.16 30.1447 1364.06 19.2271 1370.26 22.7178C1370.37 20.9353 1369.18 20.6382 1369.41 18.633L1368.89 17.1476L1369.41 15.6622H1368.44C1367.55 12.7657 1369.85 8.60667 1371.19 11.5774C1369.56 12.283 1371 13.4713 1371.19 14.5482L1370.71 16.1449L1370.26 17.6303C1371.75 17.2219 1373.27 21.418 1371.19 21.7151C1370.86 23.4976 1376.2 23.4976 1374.75 20.6382C1379.06 24.4259 1373.2 29.0678 1371.19 31.8528C1376.43 34.6379 1374.27 45.0727 1372.97 50.0116C1371.9 49.8259 1372.19 48.1177 1372.08 46.9294C1370.34 51.6826 1368.18 49.8259 1368.44 56.0645C1378.91 58.4411 1387.05 61.3376 1392.77 56.0645C1395.07 56.2502 1391.54 57.7356 1392.77 60.1493C1393.77 59.8522 1393.4 58.144 1394.55 58.0698C1395.66 58.2554 1395.4 59.9636 1395.51 61.1519L1397.15 60.6692L1398.22 62.1546C1400.56 62.266 1399.3 61.449 1399.12 60.1864C1401.86 60.892 1401.75 58.404 1404.57 59.1095L1404.02 57.6242L1405.43 58.1069C1407.84 57.4014 1410.07 56.5101 1411.74 55.1361C1410.48 54.7277 1411.7 53.3537 1412.63 53.1309L1413.6 52.5367C1413.6 53.5394 1413.82 54.6163 1414.04 55.6189L1412.63 55.1361C1410.74 57.2157 1412.45 59.5923 1413.6 61.1891C1411.04 62.8601 1406.58 64.3826 1404.61 61.1891V65.1624C1401.75 65.3481 1399.52 64.754 1398.26 63.1572L1396.59 63.6399L1395.59 62.1546C1393.03 65.9423 1388.01 64.8282 1389.27 69.3215C1388.9 71.5124 1384.48 69.3215 1383.82 71.2154C1384.08 73.1092 1385.38 73.592 1387.45 73.2949C1386.42 81.2417 1386.86 91.0823 1391.13 97.618C1394.99 96.244 1398.48 100.589 1401.01 97.618C1402.57 98.5092 1402.64 101.109 1403.68 102.594C1409.14 102.594 1414.93 103.671 1420.8 101.591C1423.66 103.188 1424.77 106.642 1426.22 109.724C1425.33 111.023 1424.7 109.315 1423.48 111.729C1431.83 116.482 1426.56 120.456 1424.44 131.002C1420.13 129.405 1414.12 130.705 1412.67 133.007C1411.33 131.707 1410 128.848 1408.14 131.002L1408.66 132.487L1407.32 132.004C1406.88 135.198 1408.92 135.569 1408.18 139.06C1410.37 135.792 1422.51 134.678 1418.98 145.113C1420.76 146.784 1425.74 146.19 1423.51 143.145C1427.15 148.492 1433.76 140.063 1437.96 143.145V146.116L1438.07 146.413C1438.07 146.413 1438.03 146.413 1437.96 146.524C1436.7 147.415 1436.55 149.086 1436.51 150.609C1436.47 151.611 1436.4 152.577 1436.03 153.283C1435.73 153.691 1435.84 154.174 1436.18 154.471C1436.47 154.656 1436.92 154.582 1437.25 154.285C1437.92 153.208 1437.96 151.797 1438.03 150.72C1438.07 149.421 1438.22 148.641 1438.66 148.158C1439.22 148.047 1439.67 147.749 1439.78 147.267C1443.01 150.943 1436.66 156.105 1440.67 158.407C1443.45 157.107 1445.12 154.619 1449.66 155.325C1452.18 156.216 1447.24 157.219 1448.8 160.375C1455.26 164.943 1458.57 158.407 1457.79 152.243C1459.12 152.837 1462.43 151.166 1462.32 153.32C1460.98 153.505 1461.98 156.29 1460.46 156.29C1460.57 158.853 1463.54 158.259 1465.92 158.37C1466.25 156.179 1465.25 155.696 1464.99 154.285C1466.85 154.768 1467.15 152.317 1465.92 152.206C1466.59 149.012 1470.56 149.421 1472.23 147.23C1472.53 143.145 1473.53 139.877 1477.65 140.063C1480.55 144.445 1485.9 141.362 1491.1 144.147C1492.55 151.797 1487.76 152.503 1486.64 157.256H1480.33L1480.77 159.15L1479.44 160.338C1479.44 162.306 1476.99 161.638 1477.65 164.423C1480.85 169.102 1488.65 162.64 1491.1 167.394C1492.29 166.985 1492.99 166.094 1492.95 164.423C1495.18 165.611 1495.37 169.102 1498.38 169.473C1497.6 170.55 1497.19 172.147 1497.45 174.449C1505.54 168.693 1511.22 178.905 1515.49 183.584C1519.13 181.393 1521.29 175.637 1528.08 174.449V171.478C1529.42 173.075 1531.76 172.258 1532.54 170.476L1532.39 169.882C1534.02 170.364 1535.14 168.99 1535.96 167.913C1536.07 167.802 1536.18 167.616 1536.29 167.431C1538.37 166.725 1541.64 165.463 1543.42 167.431L1543.83 165.945L1545.24 165.463C1545.02 158.593 1551.55 157.404 1554.23 159.41C1554.19 158.89 1556.34 153.245 1554.23 151.277C1554.56 149.68 1555.82 152.168 1556.08 150.275L1555.64 148.789L1556.9 148.306C1556.23 147.415 1556.01 146.004 1556.08 144.222H1553.33V140.137C1546.91 136.758 1541.67 135.866 1538 128.031C1533.54 128.811 1532.24 128.328 1528.12 127.028C1527.67 128.514 1526.71 129.516 1526.26 131.113C1524.3 130.333 1524.04 127.548 1522.7 126.063V125.06C1525.26 125.84 1525.04 123.575 1527.23 123.983C1525.74 104.711 1548.69 107.978 1550.59 112.843C1551.55 115.74 1554.78 112.954 1555.12 111.84C1556.64 111.655 1556.68 112.843 1557.9 112.843C1558.57 116.705 1556.71 117.708 1556.9 120.976C1558.2 120.79 1558.64 116.816 1558.76 120.976C1561.28 121.755 1561.1 119.602 1563.29 119.973C1565.74 120.864 1561.65 123.464 1564.18 125.023C1567.48 124.615 1568.08 121.235 1570.49 119.973C1575.8 122.572 1582.41 119.193 1584.94 126.026L1586.2 125.432C1585.38 126.917 1585.53 128.105 1585.75 128.997H1584.94C1583.49 134.047 1583.38 133.973 1585.75 138.132C1589.39 137.723 1591.95 136.238 1593.89 134.047L1593.44 133.044L1593.89 132.042C1593.92 128.959 1593.11 126.88 1591.14 125.989C1591.66 123.204 1591.84 123.389 1592.99 119.936C1593.85 121.644 1595.52 122.535 1598.34 121.941C1600.09 117.076 1604.91 115.777 1607.37 111.803C1607.25 109.241 1606.07 107.941 1603.73 107.719C1602.95 92.4191 1618.88 108.127 1624.48 103.745L1624.04 102.148L1625.38 101.666C1625.38 95.5013 1622.03 92.7162 1619.06 92.6419C1619.73 91.0452 1619.81 88.3715 1619.06 87.5917L1617.73 88.0744L1617.28 86.589C1614.72 86.7004 1614.64 84.101 1614.53 81.5387C1613.08 81.2417 1613.01 82.43 1611.86 82.5414L1610.97 83.0612L1611.41 80.0905L1611.86 81.5759C1612.45 78.6794 1618.28 74.8174 1619.95 79.4963C1620.66 75.9314 1628.38 73.9262 1634.32 75.523C1632.36 72.4408 1632.77 71.2525 1634.32 68.356C1632.21 67.3534 1627.01 64.5683 1628.98 62.3031C1627.86 59.4066 1626.38 66.685 1624.45 63.3057C1623.56 62.5259 1624.78 59.8151 1622.66 58.2554L1622.55 58.3668C1622.59 57.3642 1622.59 56.3987 1622.52 55.1733L1622.66 55.2847C1622.52 54.0964 1622.85 53.5022 1623.56 53.2794C1623.3 48.8233 1616.31 51.9054 1616.31 47.1151C1614.12 50.6057 1609.67 48.1177 1608.29 45.147C1609.41 42.5847 1610.08 41.9534 1612.75 43.0674C1612.3 42.1762 1611.97 41.3593 1610.97 41.0993C1610.67 39.3169 1615.98 39.3169 1614.53 42.1019C1616.5 41.9905 1614.94 37.8315 1615.5 36.049C1619.92 38.4256 1620.81 34.2666 1626.3 36.049C1626.49 41.3221 1632.73 39.6139 1632.62 45.1841C1635.36 45.7783 1640.3 43.8844 1641.6 46.1867C1643.61 44.7014 1645.84 43.5131 1645.17 39.1312C1646.36 34.6751 1654.15 37.7201 1655.97 34.0809C1655.79 30.8873 1652.45 31.2958 1653.3 27.0253V26.914C1653.3 26.914 1653.34 27.0254 1653.41 26.914C1654.53 26.4312 1655.71 25.9113 1656.98 25.7256V25.9113H1657.76C1658.13 26.0227 1658.43 26.097 1658.87 26.2084L1659.06 26.3198C1661.95 30.2932 1668.08 28.3993 1672.2 27.0253C1673.43 27.3224 1672.98 29.5134 1673.09 30.9987L1674.43 32.1871L1674.02 34.0809C1677.92 33.3754 1680.11 34.5636 1681.23 37.0517C1677.81 43.8101 1672.2 47.8578 1669.45 55.3218C1672.31 56.9929 1679.44 55.5075 1686.57 58.2926L1687.02 56.8072L1688.43 56.3244V54.3192C1690.88 52.6481 1690.88 58.701 1689.32 58.2926L1688.84 59.8894L1687.54 59.2952C1687.58 62.1917 1686.02 61.3747 1687.54 63.38H1692.89C1692.11 63.9741 1690.69 68.8388 1690.21 66.4622C1689.36 68.4303 1692.55 77.5653 1689.32 78.568C1690.1 79.3478 1689.88 81.3531 1691.1 81.6501L1691.59 80.1648L1692.03 81.6501C1693.44 81.8358 1693.55 80.6475 1694.71 80.5361C1696.12 84.3981 1699.01 84.8066 1697.38 89.6712C1705.59 94.4244 1702.8 102.297 1699.16 109.947C1703.84 111.543 1699.16 118.19 1698.34 120.084C1704.55 119.602 1705.25 117.819 1711.82 119.082C1711.71 122.572 1709.26 123.538 1709.15 127.14C1710 127.14 1709.82 128.328 1710 129.108C1714.24 127.511 1718.03 130.296 1721.7 128.105C1719.51 123.129 1724.34 120.938 1721.7 116.965C1726.72 113.771 1724.49 107.05 1724.45 99.7718C1728.31 95.5013 1734.33 95.0928 1742.46 93.7188C1742.79 89.634 1739.49 89.5598 1739.79 85.5864C1737.67 84.101 1735.89 85.9949 1735.22 84.5838L1735.14 84.6952C1734.81 84.101 1734.92 83.8039 1735.14 83.3955C1735.26 83.2098 1735.44 82.987 1735.48 82.6899V82.5042L1735.37 82.2071C1735.14 81.9101 1735.07 81.4273 1735.07 80.7218C1735.03 80.0162 1734.85 79.125 1734.51 78.2338L1735.18 78.5308C1737.08 76.9341 1735 70.8811 1738.82 71.3639L1738.38 69.8785L1738.82 68.3931C1739.19 66.3136 1738.19 65.7195 1737.93 64.4197L1737.48 64.5312C1737.93 62.9344 1738.12 61.3376 1738.12 59.7779C1738.15 59.2952 1738.23 58.8867 1738.23 58.4782C1742.65 59.7779 1741.01 64.3455 1739.79 68.3931L1740.23 69.8785L1739.79 71.3639C1742.2 73.6662 1744.8 69.5814 1747.88 69.47C1750.41 69.5814 1749.52 73.6291 1749.66 76.5256L1751.34 76.0428L1752.34 77.5282C1753.79 77.8253 1753.9 76.5256 1755.01 76.5256C1755.79 76.7113 1755.94 77.5282 1756.87 77.5282C1753.75 85.1779 1750.41 92.5305 1746.99 99.7718C1752 99.6603 1754.53 97.2837 1758.65 98.7691C1759.36 101.666 1757.43 101.369 1757.76 103.819L1759.1 104.896L1758.65 106.79C1761.29 106.902 1762.07 109.093 1763.18 110.875C1765.71 111.358 1762.51 105.305 1764.96 105.825C1765.93 106.604 1764.7 109.39 1766.82 110.875C1764.52 110.281 1761.84 113.549 1759.62 115.925C1761.84 121.384 1771.05 113.029 1771.31 120.976C1776.4 122.275 1787.21 118.079 1782.12 112.843C1787.58 112.546 1782.08 101.703 1784.79 98.732C1787.36 95.8355 1794.15 98.0264 1797.38 96.6525C1798.64 96.4668 1797.72 93.6817 1799.24 93.6817C1798.5 92.6791 1797.57 92.1963 1796.49 91.6022C1797.72 90.0054 1799.68 89.1142 1799.24 85.5493C1803.14 85.3636 1804.81 82.4671 1810.04 83.5811C1808.75 88.0373 1809.93 88.7428 1810.9 92.7162H1815.43L1814.98 91.2308C1816.1 91.6393 1817.32 91.9364 1818.1 92.2335L1817.21 93.7188C1816.77 94.4987 1816.28 95.3156 1816.32 96.6896C1820.67 98.2864 1820.67 104.636 1823.56 107.83L1824.82 107.31L1825.34 108.795C1828.02 109.872 1826.9 106.604 1827.13 104.822C1833.22 105.602 1834.67 101.034 1838.82 99.7718C1839.01 96.5782 1836.41 96.3925 1837.04 92.7162C1839.72 90.5253 1844.17 94.0159 1847.85 91.6393C1847.85 86.8861 1853.53 86.9604 1855.94 87.6659C1855.53 82.987 1856.83 76.5627 1855.05 73.4806H1854.16L1856.39 68.913L1855.94 70.5098C1858.8 70.9183 1858.51 67.9104 1859.51 66.425C1861.25 66.6107 1868.42 65.7195 1865.86 67.4277C1868.31 69.4329 1874.77 67.5391 1877.52 64.4569C1882.64 62.8601 1884.61 68.616 1887.43 66.4622C1887.77 68.1332 1886.76 68.356 1885.65 68.4303C1886.21 71.401 1887.62 67.539 1889.29 68.4303L1889.74 66.9449L1890.11 68.4303C1892.19 66.7592 1895.12 66.0537 1899.13 66.4622C1900.62 64.754 1899.84 60.4835 1903.66 61.4119C1905.78 62.006 1903.48 67.5762 1905.44 68.4674L1905.67 68.356C1906.15 69.4329 1905.78 70.5469 1905.33 71.8466C1904.92 73.0349 1904.55 74.2232 1904.7 75.6344H1904.52C1903.18 77.1197 1901.77 78.6051 1900.06 79.6077C1900.95 83.3955 1898.43 89.337 1896.42 90.7481C1896.23 90.8595 1896.46 91.6393 1896.42 91.7507L1897.76 92.3449L1897.27 93.8302C1900.39 93.0504 1898.43 97.915 1901.8 96.801C1900.17 94.9071 1902.4 95.0185 1901.8 91.7507C1905.59 92.7533 1906.45 93.0504 1909.05 90.7481C1911.83 92.5305 1912.24 93.1247 1912.61 95.7984C1915.92 94.7957 1915.92 98.7691 1917.73 97.0981C1917.73 97.5065 1917.73 97.8036 1917.7 98.175C1915.8 99.8832 1913.24 103.04 1915.36 105.936C1917.1 103.559 1918.03 103.337 1920 103.262V-7.62939e-05H0V83.2469C7.57543 83.4326 15.7079 83.4326 23.469 88.2972C22.912 89.2998 21.3895 89.2998 21.6123 91.268C22.8006 89.894 26.6997 90.8595 24.3602 88.2972C25.9199 87.7031 28.1108 91.268 28.8163 88.2972C39.7339 96.3554 56.5187 90.2653 67.5847 95.3527C67.9189 91.7878 67.9189 95.3527 72.0409 95.3527C73.2663 95.3527 74.8259 93.2732 75.68 93.3846C79.6534 93.5703 79.802 95.2785 85.5949 94.3873C86.5976 94.2758 86.1519 95.687 85.5949 95.3899C88.2686 95.0928 92.6133 96.0954 97.2923 96.3925H98.1835L96.7353 99.289C96.4011 99.7718 96.0668 100.292 95.9554 100.96L95.5098 101.443C92.6133 102.743 94.8414 98.175 91.8707 99.4747V102.445C83.9982 101.443 82.9955 105.045 76.5341 107.496C77.3882 108.684 77.7596 110.281 77.4996 112.546C81.8072 113.549 82.5128 112.249 84.7037 115.628C86.7832 115.925 85.7063 112.657 87.3774 112.546C88.6771 113.252 89.0484 114.737 89.2341 116.631C92.4277 112.063 98.4806 118.005 104.496 118.71V116.631C110.252 118.71 119.313 113.957 124.363 115.628C124.4 117.039 124.475 118.413 123.472 118.71C123.843 121.57 127.26 114.44 128.003 117.633L129.302 117.151L128.857 118.747C129.971 118.859 130.49 118.45 130.713 117.671C133.387 121.347 140.628 116.482 140.591 118.747C140.925 121.718 147.609 115.554 147.832 119.75C148.686 119.639 148.501 118.45 148.686 117.671C157.339 126.991 169.259 112.026 181.142 119.75C180.956 118.97 180.176 118.747 180.176 117.671C186.638 122.647 186.044 121.235 190.983 121.755C191.168 119.379 192.728 120.567 197.295 119.75C192.951 123.538 202.271 121.235 202.754 118.747L204.091 118.153L203.645 119.75C204.722 119.861 204.351 121.533 204.537 122.721C205.873 112.806 215.566 118.636 219.205 117.076C219.205 117.485 219.205 117.782 219.093 118.153C219.056 118.859 218.908 119.564 219.056 120.344V120.641L219.205 120.827C220.096 121.718 221.21 121.941 222.213 122.127C222.881 122.312 223.512 122.424 223.995 122.832H224.329V123.723C223.03 125.209 223.587 126.991 226.112 126.806C225.926 126.026 225.221 125.803 225.221 124.8C226.706 124.503 226.854 125.692 227.968 125.803L228.377 124.206L228.86 125.803C230.754 126.88 230.828 126.88 229.751 124.8C231.608 123.909 232.387 122.424 235.21 124.8C234.95 120.827 231.868 120.121 229.194 118.859C228.86 117.671 227.783 117.559 227.114 117.485C226.26 117.373 225.815 117.299 225.555 116.779C225.443 116 225.109 115.183 224.701 114.477L225.221 114.663C228.006 115.368 227.003 111.878 229.751 112.583C226.78 110.615 229.565 110.986 229.751 107.533C238.663 113.289 236.992 101.888 245.904 108.535C243.454 104.265 249.024 109.538 250.472 106.567L251.809 106.085L251.363 107.57C255.819 111.543 253.665 105.082 256.711 110.652C257.825 110.244 258.604 109.352 258.567 107.57C260.127 107.384 260.907 109.352 261.241 107.57C262.466 107.978 262.021 110.132 262.169 111.655C258.864 114.626 257.045 110.764 255.856 113.623C254.668 113.214 253.963 112.323 254 110.652C249.692 112.732 243.454 109.761 244.122 115.702L245.459 115.22L245.013 116.705C246.35 117.188 247.241 118.19 248.652 118.785H249.544C249.024 119.676 249.209 120.864 249.544 121.755H248.652V122.758C246.907 121.978 247.984 119.787 245.867 121.755C246.61 122.647 247.538 123.241 248.652 123.723L249.544 123.241L250.435 122.758C251.437 121.57 251.215 120.678 249.544 120.753V119.75C250.212 119.564 250.435 118.747 251.326 118.747C251.215 120.53 252.403 120.827 252.217 122.721L251.772 123.204L251.326 123.686C252.44 123.983 252.217 125.766 251.326 125.766C251.697 127.251 252.106 125.58 253.109 125.766H254C253.554 126.657 253.74 127.957 254 128.737H253.109C250.918 126.249 250.769 131.225 250.435 133.787H254L253.814 133.193C254.594 133.713 255.337 134.492 256.005 135.087C257.045 136.164 258.196 137.389 259.756 137.872C259.978 138.057 260.313 137.872 260.387 137.463C260.498 137.166 260.35 136.869 260.127 136.758C258.716 136.238 257.787 135.272 256.711 134.158C256.191 133.676 255.596 133.081 254.965 132.561V131.782L253.368 130.779C254.371 130.779 255.894 130.668 257.23 130.296L256.748 131.782C258.419 135.049 259.421 130.779 263.989 130.779C264.175 131.967 263.803 132.561 263.098 132.784C265.846 135.161 264.62 127.92 267.554 132.784C269.411 132.079 271.23 129.702 269.411 127.734C272.641 129.219 277.543 125.06 279.325 121.681C278.991 120.381 277.691 120.084 277.469 118.71C282.816 118.71 287.941 121.978 296.37 121.681C294.253 118.896 303.723 120.381 307.176 121.681C308.29 121.273 309.033 120.381 308.959 118.71C309.813 119.416 311.038 119.713 312.598 119.713C312.412 118.933 311.632 118.71 311.632 117.633H312.598L312.152 116.148L313.489 116.631C314.269 117.114 315.012 117.708 316.163 117.633C315.234 116.259 315.234 115.257 317.128 114.663C316.831 116.259 317.945 116.334 318.02 117.633L319.356 117.151L315.717 120.233L314.455 120.716C310.667 123.798 299.898 121.718 294.662 124.8C292.694 125.395 291.468 126.1 290.651 127.288L290.132 126.768C286.715 125.989 285.787 127.957 282.89 127.771C281.776 131.039 285.861 128.551 284.673 131.856C289.686 130.371 289.426 136.126 295.479 134.938C295.33 134.047 294.662 133.861 294.662 132.859L293.251 132.376C294.476 131.967 295.665 131.893 296.89 131.373L296.37 132.859C296.704 135.235 298.895 131.67 299.118 130.853C301.792 131.633 297.001 132.339 298.227 134.938C299.341 133.453 302.46 133.453 303.648 134.938C303.463 135.718 302.683 135.941 302.683 136.906L304.094 137.389L303.648 138.874C304.948 140.063 305.839 139.951 306.322 137.872C308.105 139.171 304.911 142.736 309.961 141.957L311.298 141.362C311.521 142.662 311.929 143.553 312.189 144.445L310.853 143.962C311.187 146.338 309.182 146.153 309.961 149.012H310.407C308.996 150.906 307.399 153.468 308.179 156.365L308.253 156.773L309.033 157.479C309.664 158.184 310.555 158.964 311.67 159.67C311.707 159.781 311.781 159.67 311.855 159.67L311.744 160.152H312.709C312.338 161.452 311.521 162.232 310.036 162.121C309.59 165.611 314.937 162.715 315.383 165.203L316.274 164.72C316.274 165.723 316.571 166.688 316.794 167.691L315.383 168.173C316.98 170.253 314.752 170.179 316.274 172.258C317.165 172.258 317.054 171.07 317.24 170.29C320.47 172.964 315.791 174.152 319.022 178.423C321.77 177.123 323.887 179.202 327.117 177.346L326.672 176.343L329.346 177.828L328.046 177.346C327.86 179.537 325.743 179.537 323.515 179.425C324.37 182.99 326.189 180.019 328.937 180.428C325.929 187.298 323.738 177.94 319.913 182.396C320.47 183.399 321.993 183.399 321.77 185.478L322.179 186.963L320.879 187.446C326.746 188.635 337.886 187.558 337.924 181.393L337.701 181.356Z" fill="white"/>
</svg>
