<svg width="1920" height="128" viewBox="0 0 1920 128" fill="none" xmlns="http://www.w3.org/2000/svg">
<path d="M12.3563 101.498C17.5201 100.723 19.2166 101.793 23.9746 99.8011L24.3803 101.498L24.8598 99.9117C26.704 98.4363 30.2818 103.453 32.9005 99.2109C33.8964 99.5059 33.3433 100.281 32.8638 100.281C35.7039 99.5061 42.7117 101.682 46.2525 98.8052C47.5435 99.2847 46.1421 99.6905 46.2158 100.981C55.5106 98.1045 63.9939 101.682 75.4649 105.702C78.305 104.928 78.5631 100.76 80.9975 99.506C88.3743 104.043 88.3743 111.825 92.0258 116.362C94.5339 116.362 95.124 114.481 93.7962 117.542C96.5625 118.428 100.546 116.841 104.493 118.132C102.206 114.776 101.284 112.895 102.169 108.174C103.275 106.883 103.497 107.879 104.788 108.284C105.747 104.227 103.57 101.277 105.083 99.6168L105.562 98.0308L104.234 97.33V96.2233C108.771 95.5225 109.287 93.9366 114.082 95.6332C115.742 98.6946 115.078 104.301 120.058 103.637C119.873 101.055 118.804 99.5061 119.394 95.9284C125.037 94.1579 125.037 92.0924 130.09 95.4488C131.418 94.0841 132.488 90.5062 134.59 93.457C136.803 90.6907 135.365 86.4491 136.692 84.7893C140.528 88.9203 147.647 84.4941 148.495 77.7812C157.679 81.1377 149.049 92.4611 157.753 95.7438C157.421 93.2725 160.925 91.0965 163.065 94.9693C166.347 94.3792 163.027 89.6579 164.282 85.195C167.011 83.1295 168.671 86.8548 169.777 83.2033C170.995 85.5639 172.839 87.4449 173.945 90.0268C175.236 89.2522 175.826 82.0229 175.125 82.4287C175.937 81.6541 178.74 82.5393 177.929 77.1173C179.22 77.8181 180.031 78.8879 180.474 80.4739C181.359 79.9944 181.912 77.5969 182.318 79.478C183.72 79.0723 182.06 78.0764 182.429 76.306L183.83 75.8265L184.273 74.1667C186.154 75.5683 189.215 75.642 190.432 77.8182L189.99 78.8879L190.396 79.9575C189.547 82.9082 191.576 82.8343 191.059 85.3793L189.51 84.9737L190.949 88.7359V86.486C195.818 85.6008 190.838 89.2522 194.563 88.8465C195.412 85.8957 193.383 85.9696 193.863 83.4246L194.342 82.355L193.936 81.2853C194.711 80.4 195.559 75.8634 199.432 76.0478C199.432 74.9782 199.469 73.8716 199.543 72.802L200.797 73.392L202.125 72.9127C204.448 75.8635 203.305 76.7486 202.825 80.6214L202.272 82.2074C203.895 81.0271 205.002 81.7278 206.809 81.9122L205.481 80.7321C207.03 78.3716 211.419 81.728 212.526 83.2772C213.891 81.6911 214.075 78.5559 214.518 75.7896C216.141 77.9657 217.8 76.2691 219.903 76.0847C220.272 78.2609 222.522 78.2608 220.641 80.437C224.587 79.2567 225.62 75.7895 229.603 79.8467C231.263 78.6664 227.538 78.7772 229.714 75.5314C230.673 76.4166 232.001 77.0069 234.103 76.8224C234.14 76.4167 234.14 76.1215 234.14 75.7527L234.583 76.3429L234.988 76.8224C241.148 77.597 244.947 75.2363 248.267 79.6993C251.476 74.0929 258.41 80.2895 259.221 71.5111C261.287 72.3963 261.508 75.3469 263.537 76.1583C264.496 71.7322 260.955 72.1012 261.766 69.1505C261.287 69.3349 260.77 69.4456 260.328 69.4456C258.742 69.335 257.451 67.9703 256.381 66.9006C255.902 66.3105 255.385 65.8309 254.906 65.4252C254.352 65.0194 254.168 64.2448 254.5 63.544C254.832 62.9539 255.459 62.7695 255.976 63.1384C256.603 63.6179 257.193 64.2079 257.746 64.9087C259.479 66.6792 260.254 67.1956 261.397 66.3103L261.066 66.1998C261.066 64.2081 262.283 63.913 262.098 61.8475C263.721 65.499 264.754 65.4989 266.598 62.1424L266.967 63.7284L268.295 63.3227C268.516 65.4989 270.028 66.2735 270.84 67.7489C268.295 71.1791 272.057 74.0561 271.43 76.5273C274.971 73.8717 279.618 74.7568 284.007 73.8715L285.335 74.4618C284.524 72.9864 284.561 71.5111 284.782 70.5152C285.852 70.9209 286.847 70.3307 287.733 69.7405L286.22 72.6912C287.29 72.3961 288.101 71.9168 288.544 70.8103L289.392 70.9209L289.503 69.8513C290.278 70.6259 290.72 71.9167 291.126 73.2076C294.077 73.9822 295.331 72.6914 297.396 72.4332L297.064 74.388L299.683 72.0273L298.355 72.4332C296.954 69.2612 295.921 64.4292 297.802 60.4826C299.646 60.8883 299.462 63.4333 301.306 63.9497C303.408 63.3596 301.343 57.1262 303.371 56.3516C306.802 56.6467 305.548 62.2531 309.421 62.1793C308.24 69.7775 315.138 68.302 314.289 75.4944C312.334 74.7936 312.961 77.5599 311.56 77.5599C315.728 81.8016 311.007 87.3343 311.117 90.5801C310.011 90.1744 309.789 88.5884 308.535 88.2933C308.203 94.6005 310.822 97.6618 312.592 101.608C315.875 99.2478 317.129 100.908 320.744 98.7316C322.92 100.391 323.473 104.08 327.715 103.453C327.715 102.383 326.645 102.457 325.944 102.162C327.125 97.2193 333.543 96.1496 331.698 90.5432C336.788 93.0882 342.837 94.6742 343.723 102.088C343.169 101.977 342.542 101.977 341.989 101.977C343.76 103.858 346.931 100.908 343.649 105.334C345.751 103.047 346.046 104.448 348.149 103.379C346.821 99.2478 351.026 96.6659 349.329 95.7807C351.911 94.711 358.255 94.7849 356.374 97.2561C357.923 97.6618 358.144 96.4816 358.255 95.1906C360.247 94.7849 362.976 98.7314 363.529 96.4815C363.087 99.2478 367.587 102.899 370.611 99.0634C368.878 107.731 381.639 105.26 385.623 104.19C387.725 104.78 385.254 99.2479 388.389 101.018C387.947 96.1866 387.172 93.8996 386.877 91.1702L388.205 90.6907L387.799 89.1047C387.578 87.2236 388.574 87.0392 389.643 87.0392H390.565L388.463 83.0926L388.869 84.7893C386.914 84.8999 386.029 83.6828 386.324 81.3222L387.873 81.8017L386.803 78.6297L386.287 80.2157C384.664 80.3264 384.443 78.8509 382.746 78.9246C383.078 77.1542 384.148 74.093 382.967 72.4332C384.516 68.0809 385.254 73.5027 387.947 71.843L388.057 67.7858C388.611 69.3718 389.164 71.6217 388.02 73.0233C388.131 73.0233 388.205 72.9127 388.316 72.9127H388.426C390.418 73.0234 391.377 70.9209 391.819 69.1505C392.114 68.3759 392.705 68.0808 393.369 67.9702C393.553 66.9743 393.811 65.7941 393.922 64.7982L393.59 67.9702C393.59 67.9702 393.811 67.8595 393.922 67.9702C394.032 67.9702 394.254 68.0808 394.291 68.1545C395.471 67.8595 396.615 67.2694 397.795 66.5686C398.533 66.1628 399.233 65.7941 399.897 65.499C399.934 65.2039 400.045 64.7982 400.155 64.6138C398.864 63.5442 400.45 62.954 399.454 60.1877C403.659 60.4828 410.483 54.0649 414.577 59.8926L415.02 60.9621L415.425 62.0319C414.134 63.3228 413.581 65.6834 413.434 68.4497L412.917 70.1095L414.319 69.5931C414.761 72.175 415.499 74.72 412.364 74.9044C411.184 77.6707 414.909 79.7362 411.257 79.2567C412.032 82.7238 418.228 84.3836 420.183 78.5559C422.249 75.0888 422.728 82.0229 425.495 81.027C424.868 81.9123 423.982 83.9778 425.384 84.2729C423.503 85.2687 420.737 85.7484 419.003 89.5106C422.655 88.736 421.216 96.1127 420.441 99.3585C422.876 99.543 422.286 97.5881 423.982 99.5429C425.31 99.3585 424.425 96.2971 425.864 96.2971C422.581 93.3464 424.24 93.125 422.47 91.871C425.089 88.2195 425.679 87.7401 430.548 88.9941C428.187 75.0888 428.556 70.1463 422.507 61.2942H423.392V60.2246C427.339 56.6837 426.601 52.9216 425.568 49.3807C424.13 52.3314 421.954 47.4258 421.069 50.2659C420.294 46.725 419.409 43.0734 416.015 42.3726C416.642 41.5981 417.454 39.4219 416.052 39.1268C418.708 39.2375 420.11 35.9548 425.089 36.3605C425.642 39.2375 428.15 39.8276 428.409 43.0734C429.294 42.4833 429.847 40.1228 430.253 42.0039C431.027 41.1187 430.474 38.8317 431.359 35.5859C432.06 35.5859 432.871 35.586 433.683 35.6966C433.572 34.4057 433.203 33.1517 432.724 31.8608C432.466 30.8649 432.134 29.7952 431.876 28.7993V28.3198L431.986 27.9141C432.392 27.0289 432.65 26.2174 432.982 25.5535C433.13 25.2584 433.314 24.8527 433.425 24.6683C433.683 22.4184 432.318 22.1232 432.576 19.9471C432.355 19.7626 432.097 19.5414 431.581 19.357C431.138 19.0619 430.585 18.8775 430.068 18.4718L429.736 18.1767L429.626 17.6972C429.33 16.9226 429.331 15.9268 429.294 14.7465V14.857C427.228 13.5661 427.56 9.61959 427.745 5.96807C432.06 5.673 430.142 12.4965 433.793 12.8654C433.425 13.7506 432.908 14.6357 432.097 14.857C432.097 15.2628 432.097 15.6316 432.134 16.0373C432.171 16.0373 432.281 16.1481 432.429 16.1481C433.314 16.4432 434.421 16.9226 435.195 18.6193L435.416 18.4349C436.191 18.3242 436.265 18.9144 436.265 19.6152C437.445 17.6235 438.146 15.2629 440.027 14.3039L441.318 14.894L442.646 15.4842C443.863 15.8899 442.867 18.7299 444.379 18.8406C441.502 21.4962 440.285 26.2174 435.306 26.033C435.195 26.3281 435.011 26.6231 434.9 26.9182C434.679 27.5083 434.421 27.9878 434.125 28.6886C434.31 29.4631 434.494 30.1639 434.753 30.9753C435.306 32.6351 435.859 34.3319 435.97 36.3974C436.339 37.4671 437.039 38.1679 438.404 38.2785C437.297 44.4751 438.404 46.6512 435.343 47.9422C434.789 49.8232 437.888 52.5894 435.158 53.364C435.933 55.0238 436.56 53.1797 438.699 54.6551C440.543 52.5896 441.871 50.5977 441.207 47.647L441.06 46.8724L441.613 46.688C441.834 46.5036 442.351 46.2823 442.683 45.9872C443.015 45.8028 443.383 45.8028 443.568 46.2823C443.789 46.5774 443.678 47.0568 443.383 47.3519C443.162 47.5363 442.904 47.7576 442.683 47.8314C443.162 51.2985 441.465 53.733 439.621 55.8354C439.953 57.237 441.834 56.7204 443.162 57.0155V58.0853C443.789 57.6795 444.453 57.4952 445.338 57.2001C445.965 57.6058 446.556 57.9745 447.109 58.8597L446.703 57.2001C447.367 53.9543 448.584 58.2697 450.244 57.3845C450.502 59.45 449.691 60.1507 449.285 61.4416C449.949 63.1014 449.727 64.7982 449.506 66.1629C449.395 66.9375 449.285 67.7489 449.322 68.4128C449.432 69.1873 448.99 70.1095 448.252 70.2939H447.994C447.441 70.2939 446.887 69.7036 446.777 69.0028C446.592 67.7119 446.777 66.5317 446.924 65.4621C447.219 63.9867 447.256 63.1016 446.703 62.2901L446.482 62.585C445.154 61.5154 444.638 59.8188 445.486 58.5279L443.752 58.2327C441.687 59.413 441.576 62.1793 443.715 63.544C444.121 65.9046 442.424 65.499 440.986 65.499C444.269 68.4497 438.22 71.3266 440.765 73.2076C440.506 75.974 439.252 71.6217 437.224 73.0233C437.002 75.015 438.22 75.3839 437.998 77.4494C438.884 78.0396 441.945 79.0353 444.084 80.9901C439.474 85.7113 445.117 84.0516 440.322 88.4777C438.146 87.7031 437.113 85.7114 436.007 83.8303C434.015 83.8303 433.941 86.4859 434.015 89.1416C437.334 91.9079 433.609 95.3749 434.015 90.2111C433.535 91.0964 432.982 91.9816 432.982 93.457C433.646 94.5266 434.605 95.1167 435.638 95.7438C436.338 95.5593 437.74 92.0924 437.002 91.5022C442.535 91.6866 441.17 100.096 445.191 101.756C444.933 101.645 448.621 101.94 448.805 101.94C449.654 101.645 449.469 99.6904 450.65 99.7642C451.94 99.9486 453.637 103.231 455.924 102.235C455.149 94.0471 456.809 91.3915 451.977 85.6745C453.268 84.7893 455.481 88.7359 454.744 81.5435C458.616 83.7196 459.059 74.056 463.006 75.3101C462.084 73.9454 462.342 73.0234 463.965 73.134C460.94 67.0113 467.579 68.7079 467.026 62.4745C465.735 63.4704 463.633 63.3597 462.489 64.3556L462.12 62.6958L460.719 63.2858C458.137 61.8105 461.715 53.3272 460.166 53.4378C464.924 51.8518 474.071 54.028 479.604 58.7492C478.682 60.5196 477.169 61.1097 475.989 59.6343C477.354 61.9212 475.804 61.0359 475.804 63.9866C477.059 62.9908 479.198 63.2122 479.53 60.9254C480.563 62.6959 483.181 65.2777 481.005 67.5276C482.628 69.2243 483.772 67.9333 487.202 68.9292C488.382 66.2735 485.579 60.8516 488.493 58.0853C487.792 56.2042 484.878 56.4993 485.984 52.5527C488.935 57.0894 489.267 49.6757 493.951 52.9583C493.951 52.2575 493.988 51.4831 493.988 50.7823H494.025C493.583 48.2004 493.583 44.8808 495.132 42.4095C495.537 41.8194 496.201 41.7088 496.681 42.2252C497.197 42.7047 497.234 43.5159 496.902 44.1061C495.685 45.9872 495.796 48.9381 496.423 51.0036L496.681 50.8928C499.115 50.192 498.341 53.1797 500.111 53.2535C498.156 58.9705 497.492 61.036 497.824 68.4497C491.997 68.1546 493.214 72.2856 488.013 71.216C489.009 72.6914 488.308 72.9864 487.866 74.4618C495.501 77.5232 496.57 84.236 498.046 90.2481C498.82 90.1374 499.005 89.2524 499.89 89.2524L500.886 90.9119C501.549 89.7317 501.992 89.0309 502.619 88.367L500.849 88.2564C500.443 82.023 505.902 81.4327 503.062 75.2362C506.455 76.6009 506.345 71.5848 508.373 74.4618C507.931 73.4659 507.525 72.5806 507.672 71.1052C511.766 72.3962 510.623 66.7531 512.283 64.7982C511.324 64.7982 510.512 64.6874 509.664 64.6874C510.07 62.0318 508.041 62.2162 508.89 59.1548C507.857 60.04 506.455 60.5564 504.39 60.04C502.398 55.9828 504.795 53.4379 501.992 51.1511C502.951 49.3806 504.427 48.7904 505.607 50.1551C504.611 44.143 501.291 44.8439 498.746 42.1513C498.636 37.9097 498.968 34.1475 500.849 32.4877C504.279 31.7132 504.353 36.9138 507.008 33.8893C505.939 31.6025 502.73 31.7131 503.689 27.1764L504.943 27.8772L504.574 26.1805C504.574 25.7747 504.611 25.4797 504.611 25.1109L505.496 25.701L506.345 26.2912C508.115 25.8855 510.217 26.1069 510.07 23.1193L511.324 23.8198L511.877 22.1602C512.578 22.0496 512.762 21.1643 513.611 21.1643L514.201 23.0454L515.307 24.5206C513.98 27.6927 515.971 28.2829 514.238 31.0492C515.123 30.6435 516.34 34.5902 517.742 32.3403L518.184 32.9303L518.627 33.4098C524.934 36.7663 527.442 31.1231 526.041 22.861C532.311 23.9307 533.897 30.7541 540.093 29.1681C541.421 22.8609 547.47 26.5125 548.171 26.2174C550.679 28.578 544.778 29.1681 546.105 33.8155C547.064 33.8155 546.88 32.414 547.101 31.6395C547.987 31.7501 547.765 33.041 547.95 33.9263C551.896 32.2665 557.355 29.2788 559.679 28.9837C561.671 29.6845 558.499 30.6436 560.453 32.3403C561.302 32.3403 562.224 32.4508 563.109 32.4508C564.511 30.8648 566.207 29.6846 566.871 27.2133L568.199 27.8034C567.609 26.6231 567.314 25.8485 566.908 25.0371V26.1069C563.81 23.82 560.158 23.1561 558.093 22.3446C560.38 19.1726 559.31 17.5127 559.273 12.5702C562.113 12.2752 564.474 12.9761 569.011 15.226C569.416 13.9351 570.191 13.0499 571.74 13.1605C571.777 11.3901 571.851 9.61952 571.924 7.73843C574.764 7.44336 574.211 10.7999 576.24 11.2794L575.797 12.8654L577.125 12.3859C577.568 13.2711 578.01 14.2671 577.9 15.7424L575.945 15.4473C577.236 16.8489 577.604 18.8037 578.158 20.6848L578.674 19.0249C580.998 20.3159 581.514 23.5618 582.879 25.8486C583.727 20.5373 595.604 17.5496 596.268 24.3732L596.711 25.4427C597.19 25.6272 597.78 25.9593 598.223 26.3281C598.333 27.6191 598.333 28.3935 598.333 29.3894L598.887 27.7298C599.956 27.6191 600.436 28.1353 600.583 28.9099C600.694 30.2008 600.325 30.8648 599.661 31.0861L598.555 29.6107C597.928 30.4959 596.932 31.0862 595.604 31.3812L597.005 32.0821C596.526 32.8566 595.973 33.7787 595.973 35.254C589.334 34.7745 586.604 39.4957 584.945 45.6184C580.666 43.9218 578.748 42.0776 577.31 35.4753C573.584 37.8359 571.924 35.8811 568.347 38.2416C570.892 38.7211 568.015 48.311 573.289 50.4872C574.838 50.3027 572.219 46.6512 576.055 47.4257C577.014 51.9625 574.432 52.147 573.99 54.9133L572.662 55.3928C573.879 55.6879 574.506 56.2779 575.281 57.7532L575.76 56.0934C578.269 57.163 578.084 54.6918 580.26 55.2082C580.26 53.5484 577.936 51.5568 578.416 55.0977C575.982 55.2821 580.26 48.6798 577.715 51.8519C577.678 46.725 583.137 45.0652 586.752 47.9052C587.194 51.3723 587.231 50.0814 586.531 53.4378L586.088 55.0238L587.342 54.5443C589.518 57.2 585.018 56.2041 586.309 61.0359C588.522 61.2204 590.625 61.4418 590.809 59.0812C592.1 61.8475 594.202 63.6178 597.78 63.8023C596.563 67.9333 598.776 70.1095 594.903 71.2898C596.083 72.7652 595.641 76.0109 595.53 78.9985C600.141 77.228 595.53 79.6993 599.071 80.1788C598.813 82.5394 594.424 78.8142 597.227 82.355C596.673 85.4164 595.899 80.5845 594.571 81.064C593.207 81.359 595.309 83.0558 593.649 83.2402C596.489 81.9493 599.846 94.6741 602.169 94.6004C610.026 94.084 604.788 77.5232 605.563 73.9823L606.854 74.5723C605.378 72.8757 603.128 69.925 604.862 67.4537L603.977 67.3432C603.866 65.8678 607.739 64.2817 604.973 63.1015C607.075 61.6261 609.067 60.1508 612.239 60.1508C610.911 57.7902 607.96 53.1428 612.46 52.5527C612.607 53.4379 612.128 53.5486 611.501 53.5486C612.128 54.6182 615.706 53.0322 616.812 56.0198C616.554 56.7206 614.415 60.077 616.702 60.3721H617.513C615.337 59.4869 620.242 53.8435 615.89 53.8435C616.886 52.4788 616.96 49.897 617.882 48.4217C615.595 49.1962 618.988 37.6883 611.058 39.3481L611.501 37.7621L610.173 38.2416C609.177 37.9466 609.657 35.9548 608.44 35.881C616.812 27.6927 624.558 32.0452 627.767 17.3284C628.984 19.8734 631.492 18.5085 632.156 19.6888L631.64 21.275L632.967 20.8692C633.263 22.0494 634.48 23.6355 634.738 22.0495C636.177 25.5903 636.951 26.8814 640.824 25.5904C641.82 28.1354 643.443 30.7173 640.639 32.0821C642.594 34.4426 643.738 31.787 646.799 33.4837C646.393 36.0287 645.729 39.0162 644.033 36.6556C644.475 38.9056 646.578 38.9055 644.881 41.0079C648.643 42.5939 650.967 46.0242 652.479 49.3807L652.553 49.0856C653.364 48.9749 653.438 49.5651 653.475 50.2659C654.913 49.1962 654.545 45.6184 655.43 43.7742C659.819 43.7742 659.745 40.4177 662.622 40.8972L662.991 42.557L662.733 37.6147L662.659 38.6104C661.553 39.7907 660.815 39.4957 660.963 37.5408L661.885 37.6514L660.557 34.7745L660.999 36.4343C659.045 39.2006 656.463 35.844 656.389 39.4956C654.213 37.7251 652.553 35.4384 649.455 34.7745C651.188 32.8197 649.639 32.0082 649.639 29.2419L650.082 28.246C649.418 27.6558 648.975 27.0657 648.348 26.4756L647.869 28.1354C647.869 28.8362 647.869 29.537 647.832 30.2009C643.553 27.1396 640.787 19.6521 645.729 12.6441C649.381 18.2505 651.668 19.1356 657.09 18.7667C656.721 20.9429 657.164 22.1233 658.75 22.1233C657.2 23.0085 656.795 26.4755 655.135 24.115C655.319 30.9016 663.434 20.574 658.786 21.0535C660.999 16.3324 662.216 19.689 665.942 20.2791L666.384 21.9756L667.712 21.4594C667.38 24.3364 667.897 26.1805 670.22 25.9961L670.663 27.6559C670.958 26.1806 671.438 25.2954 672.507 24.4839L671.216 23.7831C670.884 22.1971 669.999 24.1888 668.561 23.6724C673.06 17.0701 678.519 15.9636 682.245 10.2465L682.134 8.95567C679.146 7.66473 679.036 2.94355 679.958 0.177246C682.798 0.177246 685.453 5.82056 683.24 8.07049L681.987 7.36968C682.577 8.73439 682.872 10.2466 682.318 11.2055L683.167 11.3163H685.011C683.831 17.0333 684.679 18.4349 683.72 24.447C685.269 24.6314 685.601 23.156 687.261 23.4511C686.781 27.8772 687.925 30.4592 691.539 30.2378L692.424 30.8279L693.31 30.3484C694.822 30.3484 695.634 32.9303 698.51 33.8893L698.953 35.5492L699.433 33.8893C700.096 34.4795 700.797 35.1802 702.051 35.1802C701.424 36.5818 700.097 37.0614 698.4 37.1352C699.838 40.3809 697.625 45.434 699.137 43.7373C701.461 47.2044 693.716 47.0938 692.72 49.9707C690.433 47.2044 691.392 40.8972 686.745 40.8972C687.298 32.8933 682.318 31.2337 677.376 29.537L676.896 27.8772L675.679 31.0492L677.339 30.6435C677.966 31.6394 678.187 33.004 678.077 34.8851L680.29 35.6597C680.179 36.2498 680.068 36.7294 679.773 37.0613C678.962 37.2457 677.671 35.7705 676.712 34.4058L677.155 36.1023C673.946 37.1719 674.167 37.5777 671.733 37.9834C670.737 43.516 670.626 46.5773 671.29 52.1837C673.06 49.0117 677.597 53.8436 678.372 51.4093C680.769 52.9953 679.7 58.4173 680.769 61.368C682.835 58.0116 688.958 61.1835 691.576 56.4254C693.9 58.7123 700.502 59.0073 698.843 52.4788C704.67 51.1879 699.691 62.0317 705.777 60.4826C705.777 61.958 705.666 63.3598 705.666 64.8351C704.449 66.1261 704.228 65.2407 702.937 64.7244C703.932 66.126 703.674 67.0112 702.015 66.7899C703.379 67.1956 707.879 70.7365 706.33 71.4373C707.731 70.7365 706.146 69.4825 707.326 67.085C708.58 67.085 709.871 67.0849 709.981 68.3758C712.526 68.2652 711.752 63.8391 711.973 60.7777C714.076 60.5933 715.735 58.8229 717.285 61.0729C718.28 60.9622 717.838 60.0033 717.358 60.0033C720.235 57.3477 724.846 60.4088 729.862 58.4171C731.743 57.7163 731.153 56.8311 732.628 55.2451C734.067 53.8435 736.722 53.2904 736.464 48.9381C737.644 49.0487 738.788 49.0487 739.968 49.1225C741.185 59.4869 742.107 60.4828 745.685 66.9006L745.206 67.9702L745.648 69.0397C745.132 71.3265 746.128 71.9167 746.386 73.392C748.599 74.3879 750.665 69.5561 749.226 69.261C748.23 72.8019 747.493 67.9701 746.57 68.0807L747.124 66.4211L745.722 65.8308C745.058 63.7653 744.911 60.1877 745.058 59.2287C744.652 61.2204 748.009 54.987 745.98 57.1632C748.156 54.8764 749.632 54.1017 751.365 55.2082L752.472 50.3764C753.136 52.6263 752.804 55.5033 750.849 56.7942L752.251 56.3885C752.693 58.6385 753.91 60.1509 755.681 60.9254C754.242 65.5728 756.271 68.2284 754.39 72.8758C756.75 73.466 754.611 73.6502 756.049 77.3017C757.488 76.3059 757.119 72.6544 758.041 70.8839C759.591 72.8388 762.209 69.7038 763.463 67.8227C762.283 64.7613 757.709 65.5359 757.267 66.4211C755.939 66.126 757.82 61.5892 755.718 59.8187C757.009 57.2368 768.553 60.8146 769.291 53.8804C771.688 57.532 777.258 53.8804 777 61.9581C774.934 59.3024 773.68 64.1342 769.918 62.6589C768.811 67.0112 773.459 67.8965 774.971 70.5521C775.819 71.9168 773.939 78.0394 778.365 76.1583C778.586 78.7402 778.143 80.2895 777.295 81.5804C782.127 79.4042 777.848 84.3468 780.688 87.1869C786.516 86.1172 788.987 87.3712 793.93 90.0637L795.294 90.654L794.262 86.2278L793.155 87.8138C791.311 87.113 791.311 86.0434 792.344 84.568C790.352 81.2116 784.413 77.9658 786.516 73.3184C785.815 70.9578 784.487 69.3717 781.241 69.7775C781.352 68.3021 781.463 66.7161 780.467 66.5316C783.233 65.462 786.627 66.7162 789.43 63.6548C788.139 58.5279 790.278 60.1138 790.647 54.9869L791.938 55.6877L793.34 55.2082C801.27 54.7287 803.52 61.036 808.13 66.8637C810.417 64.3925 817.646 61.1466 817.83 68.4497C819.601 68.7448 823.326 67.085 820.671 63.1384C821.556 61.9581 823.105 63.9128 822.625 58.8966C833.912 61.3678 839.223 52.5894 846.821 53.5853C848.481 58.3065 853.571 59.1179 856.411 61.6629C857.37 62.5481 857.186 66.3842 859.804 66.1998C861.575 62.954 864.968 57.7164 860.21 54.1756C860.764 46.6881 860.542 39.9751 854.456 39.7538C853.276 36.3973 853.387 31.7501 856.522 31.16C854.862 28.3199 856.706 22.861 859.473 22.5659C859.878 20.6848 858.845 20.3897 857.776 20.2053C859.104 17.8447 862.313 21.4961 863.825 22.6764C864.821 21.9756 865.595 20.9061 866.37 19.7996C867.55 18.2136 868.657 16.5539 870.538 15.9637C870.575 15.8531 870.722 15.9637 870.759 15.9637C872.087 13.8982 873.636 12.017 875.074 10.2465L876.402 10.8368L876.845 9.25081C879.869 11.722 877.509 20.3896 882.783 20.3896C880.607 24.6313 880.275 27.5083 875.296 29.8689C873.599 29.2787 875.37 24.9264 876.697 25.9223C875.148 24.1518 872.493 24.9264 870.206 21.9756C870.87 21.2011 871.128 19.7996 871.202 18.2136L871.091 18.3241C869.874 18.7299 868.915 19.9841 867.882 21.4963C867.034 22.6766 866.001 23.9676 864.6 24.9635H864.821C864.821 25.738 864.784 26.4388 864.784 27.2502C864.304 29.7952 868.767 26.8444 867.329 30.6066C869.099 29.9058 869.431 27.3608 870.98 26.4756C874.374 29.3526 872.271 32.0082 872.345 38.4998C872.64 40.676 875.849 39.5694 874.89 43.0365L873.599 42.3357L873.046 43.9955C871.829 44.2906 872.271 46.6512 872.05 48.3478C869.21 49.3437 870.058 48.2371 866.665 48.0527C865.669 51.7042 866.997 51.2985 864.784 53.364C867.329 55.5402 870.28 53.3641 871.829 54.8395C872.677 52.9584 872.308 49.4174 873.821 48.3109L875.148 47.9052L874.743 46.2454C877.62 46.6511 878.173 53.8435 876.292 55.7246C887.652 54.0649 899.27 54.9502 899.676 75.8634L898.717 76.3429C900.82 76.3429 901.889 76.9329 902.701 77.1173L902.332 76.0478C900.156 72.2856 906.094 71.8061 908.713 70.9209C908.75 67.6751 906.389 66.6792 908.049 62.1424C912.217 61.7367 912.881 62.622 914.43 58.0853C919.594 58.7861 924.057 49.897 926.933 57.6058C933.536 55.7247 941.06 57.4213 942.056 57.3106C947.773 56.8311 950.761 51.5935 959.097 54.95C958.765 61.3678 959.982 62.1425 960.535 65.9047C959.023 65.7203 958.027 68.2652 955.039 68.8554C956.662 71.0315 954.486 70.8471 954.929 74.388C951.093 73.9085 951.166 78.519 948.437 79.5149L947.146 78.8141L947.552 80.4739C946.667 82.355 943.679 79.4779 945.781 81.4696C944.675 85.5269 942.831 76.6379 941.281 81.2853L939.954 80.6952L940.138 83.941L941.245 82.355C942.13 82.4657 943.089 82.4657 943.974 82.5394C943.789 85.4902 945.375 84.7156 943.789 86.8917C947.552 85.4164 955.961 83.3509 954.818 76.5273C956.662 76.0478 959.244 70.4044 963.891 70.4044C959.465 57.495 969.498 58.3804 972.522 50.0815C978.719 52.8478 987.792 54.028 995.612 52.3314C991.776 51.3355 988.346 44.4381 984.215 47.3888C983.182 47.2044 983.551 45.3234 983.44 44.0325C981.227 45.6922 976.948 44.5119 976.174 48.0896C975.252 42.2619 969.682 47.9789 969.24 42.2619C961.42 44.8438 958.617 39.9751 956.183 33.9629C960.498 37.2087 954.965 29.7214 953.453 33.8524C951.941 30.6066 951.277 31.1967 949.064 30.3115C950.06 27.3607 952.052 23.3036 949.322 21.6438C949.839 19.9471 950.502 22.1232 952.052 21.7543L953.306 22.3446L954.707 21.9389C954.818 21.5332 960.572 24.7789 958.248 23.2298C957.695 22.1233 957.178 21.1643 958.285 20.943L959.834 21.4225L961.014 20.0578C962.527 19.6521 962.674 20.943 962.748 22.3077C966.141 19.2463 971.157 17.9923 976.026 24.0044C976.764 23.8938 976.911 23.0086 977.87 23.1193L978.239 24.7052L978.719 23.1193C979.493 22.4185 980.342 21.8282 980.489 23.2298L979.936 24.8158C981.19 24.5207 982.37 24.41 983.551 25.0001L983.108 23.3405C984.214 22.0496 982.776 14.7465 982.665 11.3163C984.436 13.6031 984.436 10.9106 986.206 10.4311C986.464 8.47627 985.469 4.89842 988.124 6.18937C988.419 8.43929 987.423 9.06626 987.128 10.5047C996.276 12.5702 995.722 24.0414 991.776 31.4182C994.284 34.5902 998.489 35.7703 1002.29 37.4301C1004.91 31.7868 1001.51 22.9348 1008.15 19.1726L1009.04 19.7627L1009.92 20.3529C1012.69 20.2423 1015.86 17.7708 1016.89 22.8977C1021.76 22.7133 1024.86 24.3732 1026.59 27.619C1032.53 25.7379 1026.15 24.2626 1025.86 23.2667C1026.08 24.1519 1027.41 18.6194 1025.16 16.6645C1025.05 16.5539 1022.72 18.1398 1022.5 16.5538C1022.06 13.7875 1023.9 10.3205 1025.49 5.82062C1028.88 6.52141 1031.09 5.63602 1031.79 2.86971C1032.68 3.64428 1033.12 4.93534 1033.53 6.22629C1038.84 1.8002 1043.56 11.1686 1043.82 18.7667C1041.75 20.5372 1039.87 22.7134 1038.21 25.074C1036.26 24.0781 1036.44 20.8323 1033.9 20.4266C1031.91 26.8444 1033.64 31.2705 1033.45 35.6966C1034.67 35.6966 1035.85 35.8072 1037.07 35.8072C1036.07 43.9954 1042.16 44.1061 1047.43 45.0651C1048.72 50.3764 1054.74 50.192 1055.07 56.4254C1056.51 53.3641 1058.94 51.7043 1061.49 50.192C1060.71 47.02 1060.75 45.6553 1061.74 42.5939C1064.92 42.1144 1066.28 43.6636 1066.95 46.1349C1068.72 45.139 1071.26 42.7783 1073.22 45.3602C1075.39 43.9955 1077.09 42.1145 1078.75 40.1227C1084.28 42.8891 1089.48 38.463 1094.68 42.0039C1094.9 49.1225 1089.3 48.606 1090.62 57.0893C1084.13 46.1348 1073.62 52.7371 1064.99 51.4462C1064.55 55.2084 1069.27 59.745 1063.81 60.1139C1066.21 65.8309 1066.21 74.2036 1073.11 74.72L1074.1 76.3796C1074.36 74.978 1074.51 73.5027 1074.8 72.0273L1073.14 72.5068C1072.77 71.6216 1072.29 70.7364 1072.44 69.261C1071.56 69.261 1071.7 70.552 1071.48 71.3265C1069.2 73.5027 1072.18 67.4907 1071.67 64.7982C1074.4 63.6179 1074.73 64.6876 1076.94 66.1998L1076.5 68.1545L1080.11 66.4947L1078.79 65.2039C1080.44 61.1466 1084.54 61.4416 1087.82 62.3268L1087.31 63.913C1088.49 62.4377 1089.19 60.2613 1091.03 59.7818L1089.7 59.1917C1091.58 57.2369 1094.2 56.1305 1096.97 55.1346C1096.19 53.5486 1096.49 46.1717 1100.73 47.7209C1100.33 54.5444 1104.01 56.6099 1107.48 58.9705C1113.53 54.5444 1116.96 46.5406 1120.61 38.9424C1120.61 37.8728 1119.54 38.0572 1118.84 37.7621C1119.51 32.6352 1120.8 31.0491 1121.94 24.7419C1123.01 25.037 1123.49 24.6314 1123.78 23.7462C1129.54 25.1478 1128.62 31.5287 1127.73 38.1678C1129.35 44.77 1141.67 42.5202 1144.73 37.9834C1147.91 38.4629 1146.8 41.1555 1150.05 39.385C1149.49 43.1472 1145.95 43.0365 1146.17 47.8683L1144.84 47.2783C1145.73 47.9791 1146.62 48.6797 1147.46 49.6387L1147.06 47.9791C1152.11 46.3193 1150.34 39.0162 1153.66 37.3195C1150.34 33.8524 1144.25 33.2622 1141.49 29.1311C1141.67 22.9346 1138.5 20.5372 1133.74 19.9471C1133.71 11.9432 1145.58 19.7627 1142.15 7.33276C1142.82 8.21798 1144.59 8.10727 1144.77 9.58264C1149.27 4.86148 1157.94 8.40243 1160.78 10.3573C1159.05 12.5334 1157.9 14.1931 1162.4 16.0004C1162.51 18.2504 1156.87 21.6069 1157.02 16.7751C1154.25 16.1849 1154.07 18.9512 1154.14 22.0864C1158.97 27.1026 1164.87 22.8609 1172.73 26.2174C1173.17 32.9303 1168.63 33.041 1167.9 38.0573C1162.7 38.9425 1163.25 33.5204 1158.2 34.295C1156.2 34.295 1157.72 38.8317 1157.16 40.7128C1164.25 42.889 1169.11 42.2989 1173.98 43.7742C1176.34 38.758 1179.37 40.4177 1183.9 38.8317C1186.01 40.1964 1187.3 42.7784 1188.11 45.6554C1189.62 41.8194 1193.42 41.3031 1194.64 37.1721C1190.25 33.4099 1183.35 32.4508 1178.85 28.7993C1180.4 26.7338 1178.85 27.4346 1179 24.447C1181.51 23.9675 1183.65 23.0823 1186.15 22.5659C1182.72 17.439 1186.27 13.4924 1191.69 16.3325C1191.28 18.8775 1193.24 18.693 1192.39 21.7543C1194.6 20.0577 1199.21 22.6397 1201.24 24.4101C1201.17 20.9799 1198.62 19.984 1196.96 17.6972C1198.73 16.2218 1200.28 14.4514 1201.57 12.4597L1202.57 14.1195L1204.19 13.64C1203.34 21.3488 1207.81 17.8817 1212.12 18.4718C1212.45 21.3488 1216.88 22.3077 1214.56 25.074C1215.62 25.3691 1216.18 24.8895 1216.4 24.078C1218.5 31.3811 1216.62 42.9996 1224.7 42.9996C1227.35 41.4136 1230.01 38.463 1233.66 41.3031C1234.51 38.6474 1238.64 40.307 1238.27 36.0654C1242.26 38.5366 1246.35 40.8973 1249.56 44.2537C1254.5 41.0079 1258.85 40.3072 1262.03 44.9546C1264.13 44.6595 1265.9 43.9587 1266.56 41.7826C1264.94 38.3524 1262.62 43.3686 1260.29 42.6678C1260.51 38.131 1256.64 38.426 1256.09 34.7745C1250.48 36.3605 1248.16 32.3033 1243.8 29.7583C1242.48 30.6436 1240.93 31.3442 1240.96 33.9999C1232.04 34.9957 1226.28 21.57 1220.68 28.578C1219.87 24.6314 1216.58 16.3324 1222.97 13.4923C1225.62 18.2135 1228.28 13.1974 1232.78 13.8982C1234.18 16.2588 1233.74 22.861 1231.56 23.7462C1234.55 25.0372 1242.14 26.2911 1242.29 22.0495C1243.73 23.1191 1244.73 24.7051 1246.39 25.5166C1246.35 24.8158 1246.24 24.1519 1246.09 23.4511C1245.54 20.7954 1244.98 17.734 1246.17 14.857L1246.31 14.4514L1246.72 14.1562C1247.35 13.6767 1248.01 13.1604 1248.56 12.7915C1249.04 12.3858 1249.45 12.017 1249.89 11.722L1249.74 11.5376C1249.52 9.87782 1250.7 9.76722 1250.74 8.36563C1252.92 11.5377 1255.05 4.52952 1257.89 8.66054C1258.37 12.017 1256.16 11.8326 1256.79 15.1891L1255.46 14.5988C1256.31 16.775 1255.24 18.9143 1254.83 21.0904L1255.68 21.6807C1256.75 21.8651 1256.35 23.7462 1256.42 24.9265C1262.95 31.9345 1271.14 24.3363 1277.81 25.9961C1280.1 26.1067 1279.69 22.4553 1279.8 19.5783C1283.09 16.7013 1288.95 17.2916 1288.99 10.2098C1294.19 8.62381 1293.75 18.8037 1293.16 20.2791C1296 21.9389 1295.48 27.4715 1296.36 31.3443C1298.13 29.9427 1300.02 28.6887 1302.75 28.3936C1303.7 32.8197 1307.91 35.8811 1305.92 40.6392C1303.04 39.2376 1297.66 40.7498 1297.1 36.8769C1289.91 37.5777 1289.73 41.0079 1284.52 38.4629C1282.16 38.3523 1282.31 43.4791 1283.49 44.8807L1282.09 46.1718L1282.5 48.1265C1280.39 49.5281 1277.41 49.7125 1275.3 51.0772C1277.18 53.8435 1277.59 59.4499 1276.71 63.1015L1275.86 61.4416C1275.82 62.4375 1275.75 63.3227 1275.75 64.6874L1276.71 64.2079C1279.99 63.4334 1280.54 57.495 1282.13 60.0769C1282.13 56.0197 1285.78 54.4338 1286 50.4872C1288.32 51.5568 1292.16 49.6018 1296.7 51.0772C1298.98 50.3026 1299.13 46.6512 1300.46 44.6594C1303.34 48.2003 1307.72 43.0734 1311.97 46.3192C1313.92 46.3192 1313.96 43.7742 1313.92 40.971C1312.85 39.3112 1310.6 39.09 1309.61 37.5408C1308.43 28.0616 1313.04 26.1804 1319.67 27.0656C1320.74 26.955 1320.56 25.1108 1320.74 23.8198C1324.58 25.7747 1329.12 22.6398 1330.33 28.6519C1331.77 26.7708 1335.17 25.8854 1337.6 26.8813C1339.52 27.1763 1338.08 23.0454 1338.6 21.4594C1340.48 20.8693 1342.65 18.8037 1344.02 20.6848C1345.01 20.5741 1344.53 19.6152 1344.02 19.6152C1354.38 14.3777 1366.89 28.9837 1364.67 41.4136L1363.38 40.7128C1364.34 42.7045 1364.23 44.475 1364.08 46.3192L1363.6 42.6678C1362.83 43.3686 1362.61 44.8438 1360.99 44.4381L1360.1 43.8481L1359.21 44.3276C1356.49 42.4465 1348.41 44.2169 1345.09 40.381C1339.78 46.9094 1332.4 38.094 1328.2 38.426C1325.69 42.7783 1330.81 47.3888 1334.13 48.5691C1334.17 46.688 1334.87 45.6921 1336.01 45.3233C1343.06 47.979 1354.12 50.0444 1359.99 48.7535L1360.36 50.4133L1361.76 49.9338C1363.83 49.7494 1362.57 53.1796 1364.27 53.4009C1366.55 52.5157 1367.7 50.2289 1371.46 51.5198C1371.31 53.5115 1372.53 53.8804 1372.23 55.9459C1374.41 50.0445 1377.18 54.9501 1376.96 48.5691C1379.8 49.3437 1381.12 47.9789 1383.23 47.7945C1382.23 45.6183 1384.85 37.9465 1379.94 37.7252C1381.64 35.7703 1380.13 35.0697 1380.13 32.3033C1384.07 31.1231 1385.29 25.8855 1388.17 31.6025C1389.05 29.8321 1391.16 29.6477 1391.89 27.4715C1394.88 27.3609 1395.95 39.0161 1392.41 39.4956C1395.36 41.8561 1392.78 46.5037 1393.78 51.6306C1393.11 50.6347 1391.34 50.8559 1391.16 49.2699C1389.61 49.4543 1389.05 51.0405 1389.2 53.5117C1393.04 58.4542 1400.16 46.6881 1401.67 55.282C1402.3 53.8805 1402.48 47.0938 1408.09 49.0486C1407.61 49.8232 1407.09 50.7084 1407.09 52.2944C1409.49 53.069 1408.86 50.0445 1409.86 49.0486C1415.13 52.9952 1416.61 43.9217 1422.36 47.5732C1421.81 46.5773 1421.36 45.5078 1422.47 45.3971C1422.29 44.1062 1421.51 44.807 1421.51 45.3971C1419.19 40.7498 1421.03 37.5039 1416.46 36.3236C1416.57 31.9713 1418.45 29.9059 1418.56 25.5904C1428.59 22.1233 1431.51 23.4143 1441.83 23.5249C1442.94 24.5946 1443.46 26.5863 1445.27 26.992C1445.52 29.2788 1444.53 29.7582 1444.27 31.2336C1445.49 35.7703 1453.12 33.1146 1453.79 38.3522C1452.24 36.6924 1451.79 37.1719 1451.94 40.4177C1451.28 39.8275 1450.54 39.2375 1449.29 39.1268C1443.02 51.0772 1457.58 53.8068 1464.11 48.6799C1462.16 46.0242 1468.28 45.5078 1471.42 43.5529C1473.04 45.9135 1471.67 51.6306 1473.74 53.5117C1476.73 51.6306 1479.49 53.2165 1481.82 51.7411C1484.81 49.86 1484.21 45.7292 1487.42 44.3276C1488.31 40.8605 1485.14 41.967 1484.81 39.9015C1487.09 36.545 1489.78 35.0695 1489.45 34.6638C1491.15 31.0122 1491.3 38.0202 1492.96 38.1309C1496.17 36.3604 1496.94 33.1884 1495.91 28.4673C1499.3 27.1763 1501.77 24.8158 1503.28 21.1643C1507.05 20.0947 1506.68 23.6355 1509.48 23.6355C1507.42 27.9878 1509.7 29.0574 1513.76 29.3524C1513.57 34.9588 1514.42 34.6639 1515.16 40.3071C1521.1 41.0079 1522.57 35.6598 1528.62 36.6556L1529.07 38.3155L1530.39 37.836C1534.01 41.6719 1535.59 37.7252 1539.21 41.598C1540.09 41.7086 1541.13 36.9507 1541.94 40.6023C1543.23 40.4178 1542.34 37.3563 1543.78 37.4301L1544.23 39.0163L1544.74 37.4301C1546.84 37.5407 1547.29 39.3851 1550.02 38.795C1549.98 40.2703 1549.91 41.7457 1549.91 43.1473C1547.8 43.0366 1547.18 44.9176 1544.52 43.9217C1548.28 46.0979 1542.31 50.0445 1546.07 50.6346C1543.56 52.9952 1543.08 54.6918 1540.65 53.5853C1538.58 54.1017 1541.64 55.3558 1539.65 56.8311C1539.65 58.8966 1543.86 55.1346 1541.35 59.0812C1543.78 55.8354 1546.22 58.0114 1545.11 52.6632C1548.1 51.0772 1545.74 54.7287 1547.66 56.1303C1548.76 56.8311 1551.6 54.7657 1553.08 55.3559C1559.61 57.9378 1564.36 64.7244 1570.71 59.4869C1571.81 50.4134 1567.17 51.2985 1572.81 49.7125C1572.7 48.1265 1570.15 49.233 1570.27 47.4257C1569.31 51.8518 1563.74 54.4338 1563 50.3028L1563.52 48.7166L1562.19 49.1961C1562.41 44.9544 1562.96 40.5284 1559.79 40.3071C1562.63 36.9507 1557.8 36.3604 1558.2 32.5983C1560.09 29.3525 1563.26 27.8772 1563.92 23.0085C1569.64 22.3077 1569.53 34.1474 1567.02 36.3236C1567.2 39.5694 1571.89 37.7991 1572.22 40.8605C1576.61 32.3771 1585.06 29.2418 1590.66 22.2338C1592.4 24.1149 1592.73 27.5453 1593.94 30.0166C1597.01 29.7215 1591.73 25.6641 1595.83 26.8444C1596.01 29.3156 1595.49 30.9017 1593.87 31.0861C1597.15 35.7335 1594.72 42.4094 1596.05 47.5732C1597.41 46.688 1598.04 44.9175 1598 42.2619C1599.51 44.2167 1601.06 41.4874 1604.27 42.557L1605.6 43.1473L1606.93 42.6678C1608.77 44.8439 1611.21 46.3191 1612.98 48.4953C1610.8 50.5608 1614.08 52.8476 1611.94 54.9869C1609.29 52.5157 1608.88 54.2124 1606.67 51.3354C1605.38 52.6264 1605.23 55.4666 1603.83 56.7575C1605.93 60.8885 1610.03 64.5399 1606.12 69.9618C1606.82 71.8429 1609.1 72.0274 1610.43 73.4289C1609.99 77.0805 1608.15 82.2075 1612.83 82.3181C1613.09 85.9697 1610.73 88.6253 1609.1 86.4491C1604.27 92.1662 1610.99 102.236 1605.9 104.891C1608.18 106.256 1611.1 102.826 1615.74 102.014C1614.53 105.444 1618.62 103.01 1617.37 106.44C1621.35 104.08 1620.8 107.51 1624.41 108.985C1627.62 107.399 1626.29 101.977 1623.86 99.1373L1623.93 98.0675H1623.05C1623.75 97.0716 1624.08 95.5963 1624.08 93.7152C1625.63 94.1209 1628.51 92.83 1627.58 96.0758C1628.43 93.1989 1627.88 85.1212 1624.3 86.1171C1627.03 84.7524 1627.73 79.9943 1630.83 76.6378L1632.16 77.2281L1631.75 75.5314C1631.86 71.179 1634.74 70.5151 1638.13 70.4044C1639.13 73.3551 1638.8 73.8347 1641.64 72.7651C1639.35 75.3101 1643.7 75.7158 1645.95 76.1952L1645.47 78.1502L1646.8 79.5518C1646.91 82.9083 1651.19 81.6174 1650.12 86.2648C1655.1 89.1417 1657.87 88.3302 1656.87 97.5144C1654.47 97.3299 1655.03 99.2847 1653.33 97.4036C1653.55 99.8748 1655.98 99.9486 1656.76 101.83C1659.41 99.6536 1657.02 97.7724 1659.64 95.5225C1663.69 100.539 1665.24 89.6212 1667.93 86.0434C1669.82 88.0352 1669.48 92.4612 1671.99 93.8259C1673.61 94.6005 1674.32 96.2972 1674.94 97.7726C1675.39 98.7684 1675.79 99.8379 1676.38 100.354C1676.79 100.649 1676.82 101.24 1676.6 101.645C1680.14 100.76 1680.44 95.6332 1682.8 93.3464C1680.18 92.9407 1682.87 91.1702 1683.02 87.9244L1682.61 86.2648L1682.25 84.6785C1683.24 81.1377 1686.12 85.4531 1686.86 80.5475C1690.03 80.3631 1689.95 83.9041 1693.02 84.0885L1692.5 85.6745L1693.79 85.195C1697.29 87.6662 1702.83 84.0147 1701.98 80.1788C1698.11 78.4084 1699.54 83.7197 1696.48 83.2402C1696.52 82.1706 1695.49 82.355 1694.82 82.0599C1694.71 80.769 1695.12 80.0681 1695.75 79.8837C1695.01 76.5272 1690.88 77.0069 1689.66 74.0561C1686.67 77.8921 1680.51 72.5807 1678.26 69.1136C1678.08 62.9908 1679.92 61.1098 1680.4 58.3804C1680.07 55.7985 1676.53 55.319 1678.82 52.8478C1676.27 54.6182 1673.95 50.192 1674.5 47.1306L1675.83 47.8314L1676.34 46.1718C1675.42 43.2211 1673.02 43.2947 1674.72 39.5694C1676.49 37.5777 1676.34 40.2701 1679.26 39.7538C1678.93 36.2129 1675.64 36.1022 1674.98 33.0408C1675.9 30.0901 1677.16 27.5084 1677.93 24.447C1679.7 27.6191 1681.25 24.447 1682.25 27.9141C1682.25 30.6804 1681.58 29.2049 1680.4 28.9099C1681.29 32.4507 1685.79 31.9713 1687.37 34.7376C1687.34 37.3195 1685.75 37.9097 1686.27 41.2661C1688.92 42.5571 1687.93 38.9056 1688.22 36.9139C1690.84 36.8032 1690.88 39.5694 1693.49 39.385L1694.31 39.9751L1695.27 39.5694C1695.41 42.1513 1697.7 38.4998 1698 37.5039C1698.22 41.4505 1701.61 41.6349 1706.74 42.3357C1707.29 48.5691 1705.52 51.5198 1705.41 57.5319C1706.37 60.999 1707.95 57.827 1709.69 60.999C1706.85 65.8308 1711.31 61.8842 1713.19 64.4292L1714.19 66.1998L1715.81 65.7203C1715.29 69.3718 1715.99 71.7323 1716.47 74.388L1715.92 76.0478C1717.54 74.6462 1719.02 75.8633 1719.98 76.2322L1717.47 76.1216C1719.57 83.314 1718.35 90.0268 1721.23 95.1537C1721.9 93.6784 1723.19 94.8587 1722.89 96.5553C1725.88 95.7808 1723.08 94.084 1724.77 92.3136C1724.66 91.0226 1723.22 91.2071 1722.15 91.0227C1723.22 89.0679 1723.48 86.0064 1724.15 83.5351C1726.25 83.3507 1727.58 83.8303 1728.57 84.8262C1728.61 83.0558 1728.68 81.1746 1728.68 79.4041C1736.32 74.2773 1735.99 83.1665 1739.05 90.8383C1738.49 93.1252 1737.09 94.3055 1736.21 96.1497C1736.61 96.6291 1742.74 97.7355 1739.6 101.756C1743.21 102.346 1744.8 99.174 1743.92 105.223C1745.98 103.821 1745.87 99.3955 1747.75 97.8095C1749.26 97.5144 1749.3 98.9158 1750.41 98.9896C1751.74 98.1044 1753.25 97.5142 1753.17 94.8586C1752.92 93.2726 1751.62 94.6741 1751.4 95.7438C1751.85 89.3259 1750.52 89.9161 1753.62 81.7279C1757.05 83.6827 1763.02 83.0189 1765.01 86.6704C1766.45 85.4901 1767.3 83.7197 1768.74 82.5394C1765.79 78.4084 1764.9 78.4083 1764.64 71.4004C1765.71 72.9864 1768.96 72.1012 1768.96 74.9413C1770.62 74.8307 1769.66 71.2898 1771.73 71.6955C1768.44 69.9251 1768.66 62.7326 1771.25 59.6713C1775.23 60.6671 1776.45 59.9664 1779.1 63.4335C1782.94 60.3721 1778.11 51.2985 1773.28 51.1141C1773.98 47.1675 1774.49 42.9258 1775.49 39.2743C1777.41 40.5652 1778.59 42.7414 1778.77 45.9872C1781.09 45.5077 1781.98 44.6964 1783.2 47.2783C1785.48 45.8029 1784.64 40.0859 1788.8 41.0449C1789.36 43.4054 1789.1 46.9462 1791.16 47.647C1793.16 47.9421 1794.04 46.9463 1794 44.475L1795.33 45.1758L1795.85 43.5899C1798.8 44.4751 1798.8 41.4135 1800.35 40.4177C1803.56 42.0774 1808.94 44.8438 1811.04 42.0775C1813.44 46.9093 1806.88 49.4544 1805.33 52.737C1804.7 56.573 1808.43 55.6139 1807.84 59.3392C1805.95 59.9293 1802.01 57.7533 1801.57 60.1139C1799.28 59.7081 1802.78 58.3434 1801.68 55.7616C1800.46 56.4624 1799.94 58.0483 1799.72 60.1139C1800.53 60.704 1802.89 64.7613 1803.19 62.4745C1805.07 64.6506 1800.46 67.7858 1797.69 67.6014C1798.54 69.8882 1802.67 71.2529 1800.13 74.2036C1802.86 71.0316 1807.98 71.0314 1809.27 66.0152C1809.27 61.7735 1804.74 62.1793 1809.5 60.4826L1810.49 62.1793L1812.15 61.7737C1817.31 59.1918 1823.22 63.4335 1827.97 66.9006L1829.82 67.0111C1830.37 66.2366 1831.26 65.4251 1832.11 65.13C1833.32 66.3103 1835.28 66.6055 1835.5 68.9661L1836.02 67.3801C1838.86 68.1547 1837.12 70.3307 1836.79 72.802C1837.34 72.802 1837.9 72.9127 1838.56 72.9127C1840.11 69.3719 1840.29 63.9499 1843.32 62.2532C1845.83 67.1957 1845.86 62.9538 1851.25 63.7284C1851.65 65.0931 1852.36 65.9784 1853.9 66.0891C1853.79 68.966 1853.72 71.8062 1853.65 74.7569C1852.21 74.3512 1852.1 75.7527 1850.92 75.7527C1848.81 74.8674 1846.82 73.9822 1846.6 71.1052C1841.73 73.7609 1839.63 79.9944 1833.77 81.3591C1833.73 78.4821 1831.44 73.9454 1834.21 68.4497L1832.22 67.7489C1832.44 68.4497 1832.55 69.2242 1833.32 69.3349C1831.22 74.6462 1826.68 70.6995 1821.7 70.9209C1819.82 74.8674 1814.51 74.1668 1811.67 77.0437C1810.57 78.9248 1812.67 80.9902 1812.45 82.4656C1812.26 83.7565 1810.79 82.7607 1810.6 83.4615C1808.61 90.6539 1813.55 91.6498 1818.2 95.8914C1818.83 98.9528 1816.36 97.9568 1816.25 100.133C1816.58 101.608 1817.79 101.904 1817.98 103.49C1821.52 102.715 1821.37 101.313 1825.13 102.789C1819.6 108.911 1822.59 119.276 1829.08 118.28L1829.45 119.94L1830.78 120.53C1831.66 121.231 1831.59 123.075 1833.36 122.78C1832.92 121.194 1834.65 117.247 1832.7 117.247C1832.92 119.239 1831.92 119.313 1830.81 119.423V117.137H1829.08C1829.41 113.706 1834.58 110.719 1832.14 107.473C1833.8 102.752 1838.12 107.657 1838.52 102.346C1839.63 102.752 1839.85 104.301 1841.14 104.596V103.526L1842.03 104.117L1842.91 104.707C1844.35 104.817 1845.86 104.891 1847.34 104.891C1847.56 102.236 1845.46 102.235 1844.79 100.465C1844.02 101.24 1844.17 103.416 1842.91 103.637L1842.51 101.977L1841.18 102.457C1838.34 100.797 1839 99.8749 1839.56 95.8545C1842.06 96.8504 1841.95 94.3792 1844.06 94.9693C1841.95 87.8507 1852.58 84.2361 1854.97 87.8507C1856.85 85.7852 1856.74 81.1379 1858.81 79.3674C1862.46 81.433 1858.55 87.9613 1860.32 90.3219L1858.92 90.8014L1860.14 90.9119C1861.24 90.9119 1862.53 91.0227 1863.35 91.0227L1862.02 90.4327C1862.06 89.363 1862.06 88.2565 1862.13 87.1869C1864.23 86.1172 1864.56 87.4818 1866.67 85.195L1866.92 85.3793C1867.03 84.4941 1867.33 82.6131 1867.7 82.023L1867.96 81.7279C1869.17 80.9533 1870.5 80.3631 1872.24 79.8467L1872.64 79.7362L1873.05 80.0313C1874.26 80.8059 1874.15 82.3919 1874.08 83.2033C1874.08 83.4984 1874.04 83.9042 1874.08 83.978C1874.52 84.4575 1874.6 85.3794 1874.12 85.8588C1873.75 86.449 1873.01 86.4491 1872.57 85.9696C1871.72 85.0844 1871.83 83.7935 1871.9 83.0189V82.8343C1870.91 83.1294 1870.06 83.5353 1869.36 83.941C1869.36 84.1255 1869.25 84.7155 1869.14 85.4163H1869.32C1870.28 92.9037 1880.13 102.863 1870.43 107.215C1870.54 102.383 1869.25 97.8463 1865.45 94.9693H1864.64L1865.08 93.3095C1864.12 94.4898 1863.68 95.8546 1863.24 95.9653L1863.64 97.0348C1861.65 97.7356 1861.32 102.936 1861.58 104.633C1860.84 107.289 1855.86 104.522 1856.15 108.69L1856.56 110.35L1856.97 112.01C1854.2 115.256 1859.81 116.731 1857.78 113.116C1856.97 112.01 1858.33 110.756 1858.33 110.756L1857.89 108.764C1858.77 108.764 1858.66 107.473 1858.88 106.588C1860.28 106.772 1862.31 106.293 1862.42 107.879C1864.86 105.223 1864.93 105.887 1867.03 103.748C1870.91 107.694 1875.22 117.063 1881.05 109.981C1885.33 112.157 1887.47 108.985 1890.97 107.215C1883.12 107.326 1890.94 91.4284 1885.14 93.789C1886.07 92.1292 1886.07 89.4367 1887.87 91.7235C1887.54 85.4901 1887.43 83.7196 1889.2 78.7033C1895.95 81.8754 1895.29 88.1826 1904.03 87.0761C1905.36 86.3015 1905.43 83.609 1906.02 81.7648C1911 80.9902 1912.44 84.3467 1915.65 85.527C1915.61 87.0024 1915.54 88.4777 1915.54 89.8793C1912.66 91.0596 1908.27 90.1744 1908.23 95.0063C1910.45 97.8832 1916.39 96.0758 1918.05 94.416C1918.45 92.5349 1917.46 92.3505 1916.35 92.1661C1917.46 90.6908 1918.41 89.2153 1920 88.4039V127.357H0V100.244C3.76217 99.9487 7.85633 99.9486 12.2455 99.9486V101.018L13.1307 101.129L12.3563 101.498Z" fill="white"/>
</svg>
